<svg xmlns="http://www.w3.org/2000/svg" viewBox="0 0 354.11 329.19"><defs><style>.cls-1{fill:#fff;}</style></defs><title>frolley</title><g id="Layer_2" data-name="Layer 2"><g id="Layer_1-2" data-name="Layer 1"><path class="cls-1" d="M93.47,248.61V260H84V223.36h16c7.94,0,13.31,4.48,13.31,12.66S108,248.61,100,248.61ZM99,231.42H93.47v9.19H99c3.46,0,5-1.85,5-4.59S102.48,231.42,99,231.42Z"/><path class="cls-1" d="M135.25,242.05a8.07,8.07,0,0,0-3.88-.84c-2.57,0-4.3,1.13-4.78,3V260h-9.37V233.15h9.37v2.39a7.35,7.35,0,0,1,6.09-3,5.86,5.86,0,0,1,2.57.48Z"/><path class="cls-1" d="M151,260.61c-8.12,0-13.73-5.73-13.73-14s5.61-14,13.73-14,13.72,5.74,13.72,14S159.12,260.61,151,260.61Zm0-20.35c-2.87,0-4.48,2.62-4.48,6.32s1.61,6.27,4.48,6.27,4.53-2.57,4.53-6.27S153.87,240.26,151,240.26Z"/><path class="cls-1" d="M194.16,260h-9.37v-2.32a9.62,9.62,0,0,1-7.17,2.92c-5.91,0-9.43-3.88-9.43-9.85V233.15h9.31v15.4c0,2.27,1.08,3.88,3.47,3.88a3.93,3.93,0,0,0,3.82-3v-16.3h9.37Z"/><path class="cls-1" d="M216.36,257.87a9.35,9.35,0,0,1-6.63,2.74c-7.76,0-12-6.27-12-14s4.23-14,12-14a9.35,9.35,0,0,1,6.63,2.75V221.21h9.37V260h-9.37Zm0-14.87a4.69,4.69,0,0,0-4.12-2.51c-3.22,0-5.13,2.63-5.13,6.09s1.91,6,5.13,6a4.5,4.5,0,0,0,4.12-2.51Z"/><path class="cls-1" d="M240.11,260h-9.37v-38.8h9.37Z"/><path class="cls-1" d="M249.18,269.5l3.94-10.14-10-26.21h9.73L258,248.43l5-15.28h9.32L258.44,269.5Z"/><path class="cls-1" d="M0,283.05H9.61V311.4H26v8.3H0Z"/><path class="cls-1" d="M42.38,320.3c-8.12,0-13.73-5.73-13.73-14s5.61-14,13.73-14,13.73,5.73,13.73,14S50.56,320.3,42.38,320.3Zm0-20.36c-2.87,0-4.48,2.63-4.48,6.33s1.61,6.27,4.48,6.27,4.53-2.57,4.53-6.27S45.3,299.94,42.38,299.94Z"/><path class="cls-1" d="M72.22,292.24c7.22,0,11.7,4.3,12.48,10.57H75.62a3.23,3.23,0,0,0-3.4-2.81c-2.63,0-4.3,2.45-4.3,6.27s1.67,6.21,4.3,6.21a3.2,3.2,0,0,0,3.4-2.75H84.7c-.78,6.21-5.26,10.57-12.48,10.57-8.06,0-13.55-5.73-13.55-14S64.16,292.24,72.22,292.24Z"/><path class="cls-1" d="M103.14,319.7v-1.37c-.9.89-3.59,1.85-6.45,1.85-5.31,0-9.79-3-9.79-8.66,0-5.19,4.48-8.53,10.33-8.53a12,12,0,0,1,5.91,1.49v-1.73a3.38,3.38,0,0,0-6.45-1.26H87.85c.78-5.19,5.38-9.31,12.3-9.31,7.64,0,12,4.06,12,11V319.7Zm0-9.07a4.43,4.43,0,0,0-3.94-1.85c-1.85,0-3.7.77-3.7,2.56S97.35,314,99.2,314a4.56,4.56,0,0,0,3.94-1.79Z"/><path class="cls-1" d="M126.11,319.7h-9.37V280.9h9.37Z"/><path class="cls-1" d="M140.56,319.7h-9.37V280.9h9.37Z"/><path class="cls-1" d="M149.63,329.19,153.57,319l-10-26.2h9.73l5.13,15.28,5-15.28h9.31l-13.85,36.35Z"/><path class="cls-1" d="M204.18,320.3c-10.56,0-17.85-8-17.85-18.93s7.29-18.92,17.85-18.92,18,7.94,18,18.92S214.81,320.3,204.18,320.3Zm0-29.43c-5,0-8.18,4.18-8.18,10.5s3.23,10.51,8.18,10.51,8.3-4.18,8.3-10.51S209.14,290.87,204.18,290.87Z"/><path class="cls-1" d="M251.51,307.4l4.3-14.56h8.95l-8.65,26.86h-7.94l-3.82-13.61-3.82,13.61h-7.94l-8.66-26.86h9.32l4.23,14.56,4.06-14.56h6Z"/><path class="cls-1" d="M267.68,292.84h9.38v2.33a9.71,9.71,0,0,1,7.22-2.93c6,0,9.49,3.88,9.49,9.85V319.7h-9.31V304.36c0-2.21-1.14-3.82-3.53-3.82a3.83,3.83,0,0,0-3.87,2.92V319.7h-9.38Z"/><path class="cls-1" d="M323.49,310.33c-.95,6.21-5.61,10-12.59,10-8.24,0-13.67-5.68-13.67-14s5.73-14,13.49-14c8.24,0,12.89,5.49,12.89,13.49v2.33H306.24c.3,3.22,2,4.95,4.66,4.95a3.72,3.72,0,0,0,3.94-2.68Zm-17.07-6.93h8.12a3.75,3.75,0,0,0-3.82-3.88C308.51,299.52,307,300.9,306.42,303.4Z"/><path class="cls-1" d="M344.74,317.55a9.35,9.35,0,0,1-6.63,2.75c-7.76,0-12-6.27-12-14s4.24-14,12-14a9.31,9.31,0,0,1,6.63,2.75V280.9h9.37v38.8h-9.37Zm0-14.86a4.68,4.68,0,0,0-4.12-2.51c-3.22,0-5.13,2.63-5.13,6.09s1.91,6,5.13,6a4.52,4.52,0,0,0,4.12-2.51Z"/><path class="cls-1" d="M295.84,18.61h0a63,63,0,0,1-2.23,7.08A95,95,0,0,1,277.73,53c-26.87,32.34-62.93,40-100.94,51.9-19,6-44.66,15.12-63.83,30.67-14,11.39-21,32.83-14.79,50.31A16.79,16.79,0,0,0,99.64,189a35.85,35.85,0,0,1-.62-9.43,10.59,10.59,0,1,1,8.57,16.9h-.08a10.55,10.55,0,0,1-4.79-1.15c-9.25-4.24-18.5-19.87-13.23-41.43a64.67,64.67,0,0,1,12.19-24.21c-5.67-3-21.94-14.85-28.54-56.09C66.93,34.81,79.42,7.21,86.85,0c-1.62,9.47,1.89,29.18,12.93,60.89,11.39,32.71,12,58.2,12,58.2l1,10.61s.28-7.92,2.54-13.51a77.64,77.64,0,0,1,11-7.09c-4.15-5.06-11.88-17.57-15.9-43.6-4.72-30.49,6.7-53.27,14.44-59.72-1.07,7-.37,24.26,8.25,51.66,7.66,24.33,7.5,55,7.5,55s.56-7.67,3.52-10.91q4.29-1.47,8.66-2.73c-2.84-4.51-9.87-17.69-11.6-39.84-1.93-24.91,6.18-42.84,12.18-47.81-1.48,6.8,2.21,26.07,7,42.66,5.43,18.9,5.54,27.68,5.15,37.42l-.88,12.9s2.07-6.37,5.52-9.81q5.2-1.25,10.37-2.45c-3-4.13-9.72-15.14-12.1-33.65-2.76-21.43,3.72-37.4,8.94-42.19-1,6.62,4.52,23.86,8.19,34.3,6.24,17.73,6.26,27.2,6.28,37.23l-.09,7.9a34.46,34.46,0,0,1,1.93-6.85c3.74-1,7.49-1.94,11.23-3-2-2.66-8.4-12.24-11.32-29.86C190.42,36.93,196.69,23.49,201,19c-1,5.36,1.44,16.87,6.32,29.3,5.13,13,6.72,22.25,7.37,30.56l.43,9.69A27.53,27.53,0,0,1,217.07,82c2.9-.93,5.78-1.89,8.64-2.92-2.78-3.75-7.66-11.81-10.37-24.94C212,38,216.18,25,220.16,20.44c-.69,5.13,1.87,15.7,6.63,26.5a146.71,146.71,0,0,1,9.89,33.4,28.68,28.68,0,0,1,.74-5.91c2.72-1.2,5.41-2.45,8.07-3.8-1.54-1.55-8.3-8.87-12.12-22.06-3.69-12.72-.26-22.83,2.62-26.75-.12,5,3.91,13.71,7.59,20.58,4.79,8.93,6.9,14.83,8.17,20.66l1.34,7.35a34.06,34.06,0,0,1,.39-4.23c3-1.85,6-3.83,8.9-6-2.4-1.55-8.8-6.42-12.67-16.38-4.29-11-2.12-20,0-23.29.78,3.36,3.67,8.75,9.13,17.08,4.52,6.9,6.29,11.14,7.23,14.34a51.55,51.55,0,0,1,1.57,8.16l.41-4.45c2.09-1.8,4.12-3.66,6.07-5.64a31.16,31.16,0,0,1-9.71-11.76c-4.2-8.39-4-15.84-2.7-18.85,1.21,2.75,4.72,7.15,9.31,12.91l.14.17a42.62,42.62,0,0,1,6.26,9.81l1.95,5.21-.19-3.08c1.32-1.57,2.6-3.18,3.83-4.86a23.74,23.74,0,0,1-7.86-8.2c-3-5.13-3.37-10-2.77-12.2a26,26,0,0,0,3.26,3.49c1.2,1.16,2.56,2.48,4,4.1a21.68,21.68,0,0,1,4.91,8.05c.48,1.55.93,3.4.93,3.4l.13-2.46q1.39-2.11,2.69-4.33A18.18,18.18,0,0,1,283,25.85a12.3,12.3,0,0,1-2-7.73A36.11,36.11,0,0,0,286.3,23c2.53,2.05,3.38,3.5,3.92,5,.24.62.4,1.18.4,1.18l-.08-1.78c0-.05,1-2.13,1.72-3.59a6.39,6.39,0,0,1-4-7.78,10.69,10.69,0,0,0,2.9,2.25A6.89,6.89,0,0,1,294,21.91l-.18-1.43c.46-1,.89-1.88,1.23-2.57a3.72,3.72,0,0,1-1.75-1.54,5.09,5.09,0,0,1-.63-3c.59.53,2.08.66,2.7,1.41A4.4,4.4,0,0,1,295.84,18.61ZM244.29,162.94c-12.59-10.62-30.48-14.29-46.44-16.09-28.69-3.24-63-.8-88.41,14.35,27.21-8.17,57.66-8.47,85.63-4.6,15.33,2.12,48.8,7.7,54.55,25.82a18.54,18.54,0,0,0-9-7.35,11,11,0,1,0,12.4,15.4C258.16,179,249.65,167.47,244.29,162.94Z"/></g></g></svg>