<?xml version="1.0" encoding="UTF-8"?>
<svg width="199px" height="75px" viewBox="0 0 199 75" version="1.1" xmlns="http://www.w3.org/2000/svg" xmlns:xlink="http://www.w3.org/1999/xlink">
    <title>27C6619B-48E2-4284-AC47-296A6BA431C5@1x</title>
    <g id="Components" stroke="none" stroke-width="1" fill="none" fill-rule="evenodd">
        <g id="Brands/footer/desktop" transform="translate(-1114.000000, -172.000000)" fill="#FFFFFF" fill-rule="nonzero">
            <g id="Foodstuffs_CSR-Here-For-NZ-Logo_White_RGB" transform="translate(1114.000000, 172.000000)">
                <path d="M48.377,13.566 C48.279639,13.1863532 48.0826917,12.8395809 47.8065,12.5615 C47.50993,12.2749828 47.1367316,12.0804821 46.732,12.0015 C46.2671278,11.9161517 45.7891744,11.9340749 45.332,12.054 C44.7325611,12.2088573 44.147174,12.4137428 43.582,12.6665 C42.567,13.111 41.6395,13.5765 40.747,13.937 C40.3471831,14.1082989 39.9339574,14.246431 39.5115,14.35 C39.4403325,14.3687064 39.367759,14.3815824 39.2945,14.3885 C39.0350191,14.1351683 38.8005986,13.85738 38.5945,13.559 C38.3285,13.1775 38.0625,12.761 37.7965,12.3305 C36.7465,10.598 35.6965,8.7395 34.51,6.93 C33.9072952,6.00375991 33.2529267,5.11218277 32.55,4.2595 C31.7978418,3.33921809 30.9228293,2.52662234 29.9495,1.8445 C29.4190989,1.48379688 28.848193,1.18659688 28.2485,0.959 C27.6785981,0.747452517 27.0936216,0.578979281 26.4985,0.455 C25.3797119,0.230287822 24.2411264,0.118891709 23.1,0.1225 L23.1,0.1225 C22.5652816,0.104863404 22.0645514,0.384014971 21.7984022,0.848126376 C21.532253,1.31223778 21.5442165,1.88539853 21.8295,2.338 L21.8295,2.338 C22.5785,3.535 23.373,4.536 24.115,5.5545 C24.857,6.573 25.5745,7.567 26.187,8.5925 C27.419,10.6295 28.231,12.817 28.021,14.8925 C27.912648,15.9413693 27.5859787,16.9559517 27.062,17.871 C26.4983249,18.847559 25.8009104,19.7405324 24.99,20.524 C24.78,20.727 24.5735,20.9265 24.3495,21.1225 L24.185,21.273 L24.143,21.308 L24.0835,21.364 C24.024,21.42 23.968,21.4795 23.912,21.5425 C23.8506991,21.6196333 23.7956891,21.7015631 23.7475,21.7875 C23.6914654,21.881486 23.6457022,21.9812263 23.611,22.085 C23.5380434,22.2987188 23.5071418,22.5245382 23.52,22.75 C23.5293407,22.927717 23.5635054,23.1032525 23.6215,23.2715 C23.664824,23.3830347 23.715089,23.4917474 23.772,23.597 C23.8134276,23.6673178 23.8590084,23.7351046 23.9085,23.8 L24.024,23.9435 C24.1311872,24.0692759 24.2482241,24.1863128 24.374,24.2935 C24.6828618,24.540173 25.007925,24.7658465 25.347,24.969 L26.187,25.48 C27.2231871,26.0671206 28.2120173,26.7341421 29.1445,27.475 C29.5453074,27.7968979 29.9070976,28.1645614 30.2225,28.5705 C30.464757,28.8607197 30.6329089,29.2054311 30.7125,29.575 C30.7459399,30.0197553 30.7117173,30.46701 30.611,30.9015 C30.5095,31.4475 30.366,32.0285 30.2015,32.6025 C29.483165,34.9702995 28.6169631,37.2906919 27.608,39.55 C26.5965,41.8355 25.4835,44.1 24.2655,46.256 C23.0475,48.412 21.7315,50.5365 20.167,52.2865 C18.6166265,54.0866597 16.7773035,55.6160775 14.7245,56.812 C12.790215,57.9481546 10.5513188,58.4568279 8.316,58.268 C7.21156248,58.1498514 6.13293242,57.856861 5.1205,57.4 C4.67684036,57.2067821 4.26314027,56.9510188 3.892,56.6405 C3.59734403,56.3923359 3.37086954,56.0731032 3.234,55.713 C2.9855,55.062 3.143,54.0785 3.584,53.088 C4.07106813,52.0366534 4.68206959,51.047301 5.404,50.141 C6.94237902,48.2081461 8.63745053,46.4053767 10.472,44.751 C12.313,43.0535 14.252,41.4365 16.2365,39.872 C18.221,38.3075 20.2475,36.7815 22.3055,35.301 C23.8385,34.1973333 25.3855,33.1158333 26.9465,32.0565 L26.9255,32.0285 C27.0095,31.9725 27.09,31.913 27.174,31.8605 L27.174,31.8885 C27.6325,31.577 28.0875,31.269 28.5495,30.961 L28.6335,30.8945 C28.8645,30.7475 29.085,30.597 29.295,30.4465 C29.2935081,30.3596969 29.317875,30.2744125 29.365,30.2015 C29.4044936,30.1496757 29.4287367,30.0878558 29.435,30.023 L29.435,29.953 L29.225,29.813 C29.1435497,29.7816806 29.0797005,29.7165545 29.05,29.6345 C29.022,29.5645 28.9905,29.5295 28.9415,29.5295 C28.6908908,29.3657206 28.4033703,29.2670733 28.105,29.2425 C27.9981434,29.2468144 27.8928029,29.2693028 27.7935,29.309 L27.713,29.3335 L27.6395,29.3685 L27.5835,29.393 L27.5835,29.4245 L27.5625,29.4245 C27.2825,29.589 27.034,29.7395 26.7995,29.883 L26.7785,29.855 C24.8325,31.0216667 22.9133333,32.2315 21.021,33.4845 C18.879,34.8845 16.7545,36.351 14.6895,37.891 C12.6245,39.431 10.5875,41.0235 8.6275,42.728 C6.61317582,44.4311537 4.75649471,46.3124343 3.08,48.349 C2.19672585,49.4317838 1.44591047,50.6161687 0.8435,51.877 C0.512412722,52.5760884 0.27696411,53.3165743 0.1435,54.0785 C-0.00185549803,54.9477741 0.0617291947,55.8391595 0.329,56.679 C0.621387385,57.5272361 1.12628228,58.286386 1.7955,58.884 C2.38785806,59.4116499 3.05551977,59.8481072 3.7765,60.179 C5.08111386,60.8000512 6.47650403,61.2088615 7.91,61.39 C9.35758322,61.566496 10.8248062,61.4907072 12.2465,61.166 C13.6352581,60.8430812 14.9722701,60.3283021 16.219,59.6365 C18.5924324,58.2736085 20.7216968,56.524063 22.519,54.46 C22.96,53.9665 23.4185,53.41 23.821,52.885 C24.2235,52.36 24.612,51.7965 24.983,51.2435 C25.7215,50.141 26.4005,49.0175 27.048,47.8765 C28.336,45.605 29.498,43.2775 30.548,40.901 C31.6449836,38.5097731 32.5724382,36.0443578 33.3235,33.523 C33.5055,32.872 33.6735,32.2105 33.7995,31.5035 C33.8625,31.1535 33.915,30.7825 33.9465,30.3835 C33.9465,30.184 33.9675,29.9775 33.9465,29.7465 C33.9421278,29.50338 33.917543,29.2610447 33.873,29.022 C33.7009,28.1373174 33.3192363,27.3067789 32.76,26.6 C32.2900878,25.9987647 31.7534907,25.4527743 31.1605,24.9725 C30.0920481,24.1272132 28.9592779,23.366572 27.7725,22.6975 L27.4715,22.519 C28.3737228,21.5976503 29.1514932,20.562192 29.785,19.439 C30.5242192,18.126746 30.970768,16.6700894 31.094,15.169 C31.1973936,13.6849209 31.0034358,12.1951345 30.5235,10.787 C30.0967673,9.46275241 29.5189614,8.19204934 28.8015,7 C28.0948852,5.87867538 27.330869,4.79456679 26.5125,3.752 L26.3305,3.5175 C26.5973374,3.59412095 26.8601671,3.68406711 27.118,3.787 C27.4901839,3.94045157 27.8426857,4.13785257 28.168,4.375 C28.8979016,4.93255388 29.5551734,5.57924347 30.1245,6.3 C30.7539024,7.06328147 31.3382289,7.86264009 31.8745,8.694 C32.998,10.3775 33.9745,12.194 35.14,14.0105 C35.434,14.469 35.7315,14.931 36.078,15.4105 C36.4572935,15.959076 36.9067804,16.4556296 37.415,16.8875 C37.6112063,17.0419067 37.8236215,17.1745195 38.0485,17.283 C38.108,17.3145 38.192,17.3425 38.2655,17.374 C38.3476776,17.4052905 38.4318678,17.4310152 38.5175,17.451 C38.6117493,17.4763126 38.7076484,17.4950246 38.8045,17.507 C38.899,17.507 39.0355,17.5245 39.0705,17.5245 C39.4561558,17.52265 39.8402694,17.4756636 40.215,17.3845 C40.8090729,17.23515 41.3888184,17.0337031 41.9475,16.7825 C42.9975,16.331 43.918,15.827 44.814,15.414 C45.0625,15.302 45.311,15.1935 45.5385,15.106 L45.5175,15.3125 C45.4596206,15.7436589 45.3635769,16.1688279 45.2305,16.583 C45.0936077,16.99821 44.9166056,17.399102 44.702,17.78 C44.4860381,18.1756164 44.2341436,18.5505291 43.9495,18.9 C42.8155,20.3525 41.2195,21.5775 39.5255,22.6975 C37.954,23.7265 36.47,24.6085 34.8075,25.599 L34.4225,25.8265 L34.4225,25.8685 L34.384,25.893 L34.363,25.865 L34.3455,25.865 L34.3455,25.865 C34.2912446,25.9203154 34.2431314,25.9813369 34.202,26.047 C34.1425,26.0925 34.1425,26.152 34.202,26.222 C34.2615,26.292 34.3175,26.3935 34.356,26.376 L34.398,26.411 L34.363,26.453 C34.3461562,26.4763643 34.3211904,26.492592 34.293,26.4985 C34.2633984,26.5032198 34.2369241,26.5196087 34.2195,26.544 L34.1705,26.6105 C34.1005,26.6665 34.1075,26.7435 34.195,26.838 C34.2237085,26.8555799 34.2429871,26.8851404 34.2475,26.9185 C34.2492112,26.9277549 34.2492112,26.9372451 34.2475,26.9465 C34.2475,27.0095 34.2195,27.0445 34.1635,27.0515 C34.1448866,27.106745 34.166601,27.1675452 34.216,27.1985 C34.2507936,27.2222532 34.2936531,27.2310772 34.335,27.223 C36.1445,26.7645 38.85,25.508 40.635,24.5525 C41.6048525,24.0453152 42.540214,23.4747447 43.435,22.8445 C44.3744033,22.1908384 45.2311464,21.4257633 45.9865,20.566 C47.2120035,19.204717 48.0231575,17.521694 48.3245,15.715 C48.37,15.4105 48.4155,15.1165 48.4365,14.8085 L48.4684765,14.3395 C48.4727376,14.0787402 48.4421259,13.8185406 48.377,13.566 L48.377,13.566 Z M26.0015,21.966 L25.872,22.127 L25.627,21.8365 L25.606,21.651 L26.0015,21.966 Z M25.9175,23.646 L25.9175,23.6075 C25.9,23.4325 25.963,23.387 26.019,23.38 L26.054,23.38 L26.082,23.6285 L25.9175,23.646 Z M26.1835,23.219 C26.1602792,23.2449808 26.127336,23.2601854 26.0925,23.261 L26.0925,23.261 L25.3085,22.883 L25.27,22.533 L26.201,22.9215 L26.222,23.121 C26.2233401,23.1586343 26.2094621,23.1952217 26.1835,23.2225 L26.1835,23.219 Z M1.8375,53.0705 L1.9775,52.7205 C2.086,52.4545 2.198,52.178 2.2995,51.9155 C2.34046928,51.8117931 2.3971304,51.714997 2.4675,51.6285 C2.506,51.576 2.5515,51.527 2.5935,51.478 C2.62891962,51.4444184 2.66168432,51.4081432 2.6915,51.3695 C2.85291185,51.1656316 2.99581174,50.9477678 3.1185,50.7185 C3.2434539,50.4850313 3.38620968,50.2615366 3.5455,50.05 C3.67881384,49.8792247 3.7959834,49.6964402 3.8955,49.504 C3.97920586,49.3561925 4.08154246,49.2197437 4.2,49.098 L4.319,48.9615 C4.5885,48.6535 4.8475,48.3385 5.0995,48.0375 C5.4775,47.5825 5.866,47.1135 6.293,46.6375 C7.04669469,45.8258142 7.86614738,45.077771 8.743,44.401 C8.84764865,44.205215 8.99619146,44.0363075 9.177,43.9075 C9.233,43.8655 9.2645,43.8445 9.2925,43.8585 L9.3135,43.8585 L9.3135,43.8585 L9.3415,43.799 C9.49789776,43.5774654 9.7407761,43.4325013 10.01,43.4 L10.0905,43.372 L10.052,43.449 C9.99796436,43.561243 9.90453328,43.6496911 9.7895,43.6975 C9.674,43.757 9.534,43.827 9.415,43.897 L9.3345,43.9495 C9.32309252,44.0227462 9.29020405,44.0909593 9.24,44.1455 C9.22348593,44.1669611 9.21265176,44.1922408 9.2085,44.219 C9.19847367,44.2653412 9.17539917,44.3078469 9.142,44.3415 C8.666,44.6915 8.19,45.0765 7.798,45.4195 C7.55541415,45.6353723 7.32959637,45.8693804 7.1225,46.1195 C7,46.263 6.8705,46.41 6.734,46.557 L6.51,46.788 C5.84475916,47.4482013 5.22169614,48.1495856 4.6445,48.888 L4.2945,49.3255 L3.9445,49.798 C3.8465,49.931 3.7485,50.05 3.6505,50.148 C3.5525,50.246 3.395,50.456 3.2725,50.638 C3.22485911,50.7209462 3.18389641,50.807553 3.15,50.897 C3.12108382,50.9737986 3.0871782,51.0486248 3.0485,51.121 C3.0065,51.198 2.968,51.2575 2.926,51.3205 L2.814,51.5025 C2.76314074,51.586457 2.70702902,51.6671176 2.646,51.744 C2.58837034,51.8181608 2.53463129,51.8952646 2.485,51.975 C2.42839636,52.0750719 2.37926266,52.1791885 2.338,52.2865 C2.303,52.374 2.268,52.4615 2.2295,52.5385 C2.19629558,52.5903089 2.15492778,52.6364044 2.107,52.675 C2.07229361,52.701975 2.04164663,52.7338007 2.016,52.7695 L1.8375,53.0705 Z M2.9155,52.2935 C2.7265,52.5525 2.4395,52.962 2.233,53.291 C2.23434333,53.296756 2.23434333,53.302744 2.233,53.3085 C2.233,53.333 2.233,53.361 2.198,53.368 L2.177,53.368 L2.156,53.3505 C2.12269406,53.3218736 2.10566694,53.2786509 2.1105,53.235 C2.1253622,53.1442677 2.15244153,53.0559655 2.191,52.9725 C2.26582457,52.8388094 2.34760336,52.7091316 2.436,52.584 C2.499,52.493 2.5655,52.395 2.6285,52.29 L2.723,52.1325 C2.8315,51.947 2.9435,51.7545 3.073,51.5585 C3.2025,51.3625 3.3285,51.1735 3.458,50.9705 C3.4965,50.904 3.5385,50.841 3.5805,50.7745 L3.689,50.5995 C3.83275864,50.3496347 4.00163289,50.1150872 4.193,49.8995 C4.46612143,49.5921838 4.72313278,49.2709196 4.963,48.937 L5.285,48.5065 C5.93381737,47.6920202 6.62301374,46.9105416 7.35,46.165 C7.9695,45.5175 8.68,44.8875 9.366,44.2785 L9.7685,43.9285 C10.1946514,43.5275071 10.6642244,43.1753273 11.1685,42.8785 L11.2175,42.8435 C11.284,42.798 11.333,42.763 11.368,42.791 L11.368,42.791 C11.3923192,42.7952156 11.4131436,42.8108339 11.424,42.833 C11.4384382,42.8628455 11.4384382,42.8976545 11.424,42.9275 C11.3864469,42.9929519 11.3287462,43.0445142 11.2595,43.0745 L11.1265,43.162 C10.6844629,43.4970534 10.2658224,43.8619022 9.8735,44.254 C9.6215,44.506 9.3415,44.7545 9.072,44.9925 C8.9005,45.143 8.722,45.297 8.5575,45.451 C8.288,45.703 8.008,45.99 7.7385,46.27 L7.245,46.7705 C6.82858446,47.1938813 6.4348672,47.6390038 6.0655,48.104 C5.936,48.2615 5.81,48.419 5.6805,48.573 C5.4425,48.867 5.194,49.1715 4.956,49.4725 C4.55,49.98 4.214,50.4175 3.906,50.8445 C3.74268855,51.0678643 3.59420318,51.3016995 3.4615,51.5445 C3.34986362,51.7290971 3.22713849,51.9067563 3.094,52.0765 L2.9155,52.2935 Z M11.165,59.5805 C11.165,59.5455 11.2,59.514 11.27,59.486 C11.305,59.486 11.3925,59.444 11.4275,59.4685 L11.4275,59.4685 L11.4275,59.5 C11.4275,59.584 11.2805,59.605 11.186,59.6085 L11.144,59.6085 L11.165,59.5805 Z M14.217,59.4265 L14.084,59.577 L14.042,59.6155 C13.601,59.773 13.0515,59.9655 12.5335,60.109 C12.0362826,60.2428728 11.5278088,60.3307427 11.0145,60.3715 C10.9576162,60.3795429 10.8998838,60.3795429 10.843,60.3715 C10.7957494,60.3609412 10.7467506,60.3609412 10.6995,60.3715 C10.6476058,60.382468 10.594955,60.3894881 10.542,60.3925 C10.4827331,60.392121 10.4242419,60.3789903 10.3705,60.354 C10.3705,60.354 10.3425,60.354 10.3075,60.2805 L10.283,60.235 L10.332,60.235 C10.5875,60.193 10.864,60.1615 11.13,60.13 C11.396,60.0985 11.5955,60.0775 11.83,60.046 C12.2517229,59.9755801 12.6663536,59.8678229 13.069,59.724 C13.419,59.6015 13.825,59.4615 14.119,59.3425 L14.119,59.3425 L14.119,59.3425 L14.1575,59.3775 L14.1785,59.395 L14.2065,59.4195 L14.217,59.4265 Z M14.567,58.4745 C14.5442284,58.4817409 14.5197716,58.4817409 14.497,58.4745 C14.497,58.4745 14.497,58.4745 14.4515,58.4745 L14.4515,58.4745 C14.3505798,58.52178 14.2534582,58.5767765 14.161,58.639 L14.126,58.6635 C14.0611878,58.7316168 14.0026195,58.8054128 13.951,58.884 L13.951,58.905 L13.951,58.905 C13.8930428,58.9141248 13.8346164,58.9199675 13.776,58.9225 L13.748,58.9225 C13.685,58.996 13.6185,59.073 13.552,59.143 L13.552,59.143 L13.552,59.143 C13.5161391,59.1496509 13.4793609,59.1496509 13.4435,59.143 C13.4122164,59.1377784 13.3802836,59.1377784 13.349,59.143 L13.349,59.143 L13.349,59.143 L13.3315,59.143 C13.2614204,59.1602387 13.1933715,59.1848771 13.1285,59.2165 C13.0764719,59.2379579 13.0193781,59.2440317 12.964,59.234 C12.9315427,59.2287697 12.8984573,59.2287697 12.866,59.234 L12.8345,59.234 C12.8077821,59.2473129 12.7820499,59.2625183 12.7575,59.2795 C12.6883493,59.3449755 12.5885232,59.3665596 12.4985,59.3355 C12.3075557,59.4431813 12.0943834,59.5054564 11.8755,59.5175 C11.7826366,59.5172158 11.6904359,59.501849 11.6025,59.472 L11.5325,59.451 L11.5955,59.409 C11.846666,59.2798685 12.1302867,59.2275265 12.411,59.2585 L12.509,59.2585 C12.5545,59.2585 12.586,59.2585 12.607,59.2025 C12.628,59.1465 12.712,59.143 12.761,59.1535 L12.8205,59.1535 L12.8415,59.1535 L12.8695,59.1535 C12.9039116,59.1319519 12.9418102,59.1165556 12.9815,59.108 L12.95,59.15 C13.0440241,59.1062669 13.1499588,59.0951807 13.251,59.1185 L13.293,59.066 C13.3249836,59.029258 13.358863,58.9942103 13.3945,58.961 C13.4450564,58.9226684 13.5061121,58.9006884 13.5695,58.898 C13.5993375,58.8962559 13.6287869,58.890366 13.657,58.8805 L13.657,58.8805 C13.7265565,58.8544048 13.7897827,58.8138445 13.8425,58.7615 C13.8915044,58.7120837 13.9497862,58.6728326 14.014,58.646 L14.049,58.625 L14.0805,58.604 L14.1225,58.5585 C14.1496817,58.5144531 14.1901148,58.4801463 14.238,58.4605 C14.2714119,58.4496746 14.3032015,58.4343685 14.3325,58.415 C14.3758409,58.3889047 14.4231184,58.3699937 14.4725,58.359 C14.4999601,58.354722 14.5269795,58.3689427 14.539,58.394 L14.539,58.394 L14.77,58.394 L14.567,58.4745 Z M21.4445,53.7915 C21.3669546,53.8522142 21.2965088,53.9214859 21.2345,53.998 C21.1676645,54.0734673 21.0868423,54.1352725 20.9965,54.18 C20.9513824,54.2186126 20.8971822,54.2451105 20.839,54.257 L20.783,54.257 L20.783,54.201 C20.8092457,54.1184733 20.8771088,54.0559327 20.9615,54.0365 C21.112,53.8895 21.2555,53.732 21.392,53.571 C21.5285,53.41 21.665,53.2455 21.784,53.0845 C22.3251297,52.5091923 22.8114036,51.8846525 23.2365,51.219 C23.4605,50.911 23.6775,50.5995 23.884,50.288 C24.0905,49.9765 24.2935,49.658 24.486,49.329 C24.5595,49.252 24.6085,49.196 24.6435,49.154 C24.6829116,49.1065137 24.7302847,49.0662466 24.7835,49.035 C24.7936041,48.9661674 24.8254964,48.9023829 24.8745,48.853 C24.8745,48.8075 24.9025,48.7585 24.92,48.706 C24.9426244,48.6492595 24.9816098,48.6005278 25.032,48.566 C25.0271075,48.5335165 25.0271075,48.5004835 25.032,48.468 L25.032,48.468 C25.0752941,48.4147986 25.122063,48.364522 25.172,48.3175 L25.256,48.237 L25.2315,48.349 C25.2179627,48.4437247 25.1751287,48.5318406 25.109,48.601 L25.109,48.601 L25.088,48.601 L25.039,48.706 C25.0248864,48.7809242 24.9822187,48.8474356 24.92,48.8915 L24.92,48.8915 C24.9027178,48.912908 24.8907267,48.9380893 24.885,48.965 C24.8752033,49.0016168 24.8585785,49.0360537 24.836,49.0665 L24.836,49.0665 L24.836,49.0665 L24.8115,49.098 C24.7951293,49.1550019 24.7728414,49.2101352 24.745,49.2625 C24.7236885,49.3052325 24.7061227,49.3497325 24.6925,49.3955 L24.6715,49.4585 C24.5209482,49.6471492 24.3818644,49.8446715 24.255,50.05 C24.122,50.2495 23.989,50.456 23.856,50.6625 C23.506,51.212 23.114,51.7545 22.7325,52.276 C22.34366,52.8122244 21.9154791,53.3187881 21.4515,53.7915 L21.4445,53.7915 Z M26.3725,47.425 C26.3781092,47.4420505 26.3781092,47.4604495 26.3725,47.4775 L26.3725,47.516 C26.3274252,47.5708427 26.2853632,47.6280937 26.2465,47.6875 C26.2115678,47.7413013 26.1855655,47.8003974 26.1695,47.8625 L26.1695,47.8625 C25.9455,48.251 25.7215,48.6325 25.501,48.9895 C25.2805,49.3465 25.046,49.735 24.801,50.113 C24.4960084,50.6385996 24.1569508,51.1436786 23.786,51.625 L23.653,51.7685 C23.6471208,51.8054244 23.630012,51.839642 23.604,51.8665 C23.5417727,51.9969174 23.465487,52.1201481 23.3765,52.234 C23.2925,52.3425 23.212,52.458 23.135,52.584 L23.135,52.584 L23.0615,52.6295 L23.0615,52.6295 L23.0615,52.6295 C23.0494377,52.6755937 23.0191027,52.7147763 22.9775,52.738 L22.9495,52.7555 C22.9329768,52.7905306 22.9076528,52.8206783 22.876,52.843 L22.6905,52.9585 L22.8305,52.7905 C22.8585,52.7555 22.862,52.7415 22.862,52.738 C22.8697643,52.7096343 22.8887107,52.6856355 22.9145,52.6715 L22.939,52.6715 C22.9485055,52.6469108 22.9656898,52.6260442 22.988,52.612 L23.569,51.723 L23.59,51.723 L23.59,51.723 L23.6145,51.723 C23.632987,51.697047 23.6449885,51.6670432 23.6495,51.6355 C23.661064,51.5836722 23.692476,51.5384389 23.737,51.5095 C24.1115,50.9705 24.493,50.3895 24.871,49.7805 C25.088,49.4305 25.2945,49.0805 25.4905,48.7305 C25.6865,48.3805 25.879,48.0305 26.061,47.6805 C26.1011239,47.6349117 26.1385223,47.5869951 26.173,47.537 L26.2535,47.4145 L26.2535,47.4145 L26.3865,47.3305 L26.369,47.411 L26.3725,47.425 Z M26.3305,45.759 C26.3305,46.0845 26.222,46.2805 25.9805,46.3435 L25.9175,46.361 L25.9385,46.3015 C25.9774041,46.08098 26.0837994,45.877973 26.243,45.7205 C26.2601155,45.4689874 26.3728216,45.233557 26.558,45.0625 L26.6175,45.003 L26.6175,45.087 C26.6076863,45.3408859 26.4967928,45.580315 26.3095,45.752 L26.3095,45.752 L26.3305,45.759 Z M26.894,46.1545 L26.544,46.7355 L26.544,46.55 C26.544,46.431 26.642,46.291 26.8555,46.1195 C26.8555,45.794 26.9605,45.5945 27.2055,45.5315 L27.2475,45.5315 L27.2475,45.738 C27.2227868,45.9323871 27.0876455,46.0948297 26.901,46.1545 L26.894,46.1545 Z M27.181,45.43 L27.111,45.43 L27.139,45.3635 C27.2390265,45.1499929 27.3725449,44.9538509 27.5345,44.7825 L27.594,44.7195 L27.594,44.8035 C27.6240468,44.940487 27.5980362,45.0838014 27.5217669,45.2014928 C27.4454976,45.3191842 27.3253105,45.401468 27.188,45.43 L27.181,45.43 Z M27.9825,44.3415 C27.9335116,44.5431493 27.8190374,44.7228614 27.657,44.8525 L27.608,44.8805 L27.608,44.6565 L27.608,44.6565 C27.661033,44.4899952 27.7914952,44.359533 27.958,44.3065 L28.0315,44.282 L27.9825,44.3415 Z M31.416,36.4315 C31.3834843,36.2103218 31.5127897,35.9972618 31.724,35.924 C31.7157458,35.6395379 31.7645384,35.356303 31.8675,35.091 C31.9725,34.8425 32.0985,34.5555 32.2455,34.2405 C32.2469733,34.0574712 32.2850541,33.8765872 32.3575,33.7085 C32.4296476,33.522748 32.5199167,33.3445543 32.627,33.1765 L32.69,33.075 L32.69,33.5195 L32.69,33.5195 C32.6461975,33.8032702 32.5110277,34.0650081 32.305,34.265 L32.235,34.5765 C32.2446407,34.8296637 32.1942698,35.0815184 32.088,35.3115 C31.9865,35.525 31.885,35.77 31.787,36.0395 C31.7166054,36.1614746 31.6658191,36.2937553 31.6365,36.4315 L31.6365,36.4315 L31.6365,36.4315 C31.5369791,36.5747011 31.4613312,36.7330889 31.4125,36.9005 L31.4125,36.9005 L30.8035,38.5385 L30.576,38.857 C30.5851521,39.0119885 30.4911063,39.1544821 30.345,39.207 C30.3718387,39.6793016 30.209353,40.1428268 29.8935,40.495 L29.8935,40.495 C29.7981458,40.94639 29.551113,41.3515239 29.1935,41.643 C29.1529034,42.0085283 28.9929913,42.3504944 28.7385,42.616 L28.7385,42.616 C28.7414325,42.7633917 28.6875431,42.9062613 28.588,43.015 L28.588,43.05 L28.588,43.05 L28.511,43.211 L28.49,43.211 C28.4618834,43.2140564 28.435197,43.2249736 28.413,43.2425 L28.364,43.274 L28.364,43.6485 L28.392,43.6765 L28.3605,43.6765 C28.3115,44.002 28.1715,44.198 27.951,44.261 L27.9055,44.261 L27.9055,44.2155 C27.8880405,43.9665456 28.0277978,43.7331509 28.2555,43.631 C28.2196851,43.5900946 28.1987209,43.5383006 28.196,43.484 C28.1961096,43.4119765 28.2266127,43.3433445 28.28,43.295 L28.28,43.295 L28.4375,42.945 L28.504,42.945 C28.4853979,42.7973802 28.5418881,42.650243 28.6545,42.553 L28.6545,42.406 L28.6545,42.406 C28.7438795,42.0994848 28.9032334,41.8179196 29.12,41.5835 L29.12,41.5835 C29.2560847,41.1524669 29.4965408,40.7617257 29.82,40.446 L29.82,40.2185 C29.8733641,39.8272902 30.030467,39.4574942 30.275,39.1475 L30.275,39.1475 L30.275,39.1475 L30.45,38.85 C30.5495648,38.4075113 30.6865578,37.9742855 30.8595,37.555 C31.0154935,37.1653599 31.2039916,36.7895345 31.423,36.4315 L31.416,36.4315 Z M27.895,8.2425 C27.895,8.2425 27.944,8.2425 27.9685,8.288 C27.9764523,8.30620225 27.9858141,8.32375562 27.9965,8.3405 C28.0176932,8.36980176 28.0353175,8.40152561 28.049,8.435 C28.084,8.512 28.1225,8.589 28.161,8.6695 C28.252,8.8585 28.3465,9.0545 28.427,9.2435 C28.5075,9.4325 28.56,9.5655 28.6265,9.723 C28.693,9.8805 28.721,9.961 28.77,10.073 C28.7688441,10.0834682 28.7688441,10.0940318 28.77,10.1045 C28.7900551,10.1282175 28.8022808,10.1575592 28.805,10.1885 C28.8036319,10.2084341 28.7948992,10.2271471 28.7805,10.241 C28.787131,10.2717261 28.7953081,10.302098 28.805,10.332 L28.7385,10.3565 C28.7247629,10.3186304 28.7071705,10.2822728 28.686,10.248 C28.6535343,10.1882877 28.62546,10.1262904 28.602,10.0625 L28.574,9.989 C28.4339836,9.61775628 28.2739147,9.25438819 28.0945,8.9005 L28.035,8.8025 C27.9280058,8.64991038 27.8606501,8.47310163 27.839,8.288 C27.842636,8.26037648 27.8672171,8.24040428 27.895,8.2425 L27.895,8.2425 Z M27.4225,8.218 L27.4225,8.2355 C27.458846,8.27541244 27.4927413,8.31748947 27.524,8.3615 C27.6962772,8.61914172 27.8551548,8.88549534 28,9.1595 C28.1225,9.3975 28.2275,9.6425 28.3255,9.884 L28.3815,10.01 C28.4350915,10.1035963 28.4617413,10.2101955 28.4585,10.318 C28.4606495,10.324835 28.4606495,10.332165 28.4585,10.339 C28.4716626,10.332152 28.4873374,10.332152 28.5005,10.339 C28.5495,10.367 28.56,10.472 28.56,10.472 C28.5584826,10.4800962 28.5584826,10.4884038 28.56,10.4965 C28.5634225,10.5150098 28.5634225,10.5339902 28.56,10.5525 C28.5568434,10.5756667 28.5404114,10.5948374 28.518,10.6015 L28.518,10.6015 C28.4990718,10.6004692 28.4819501,10.5899327 28.4725,10.5735 C28.4601976,10.5495822 28.4530439,10.5233519 28.4515,10.4965 L28.4865,10.4965 L28.4515,10.4965 L28.4515,10.472 C28.4405222,10.4378608 28.4405222,10.4011392 28.4515,10.367 L28.4515,10.367 C28.413,10.367 28.392,10.3215 28.357,10.248 C28.3582156,10.2375352 28.3582156,10.2269648 28.357,10.2165 C28.28,10.073 28.203,9.912 28.133,9.758 C28.063,9.604 28.007,9.492 27.9405,9.366 L27.783,9.0685 C27.6885,8.897 27.5905,8.7185 27.5065,8.5365 C27.4670361,8.44209417 27.434288,8.3450194 27.4085,8.246 L27.4085,8.2215 C27.3420667,8.19550686 27.283134,8.15341212 27.237,8.099 C27.2198854,8.0766225 27.1998775,8.0566146 27.1775,8.0395 C27.148435,8.01747286 27.1225271,7.99156497 27.1005,7.9625 C26.957,7.756 26.8205,7.546 26.691,7.343 C26.5615,7.14 26.4915,7.028 26.383,6.867 C26.152,6.517 25.8685,6.1355 25.5605,5.7365 C25.515,5.6735 25.4625,5.614 25.4135,5.5545 C25.3645,5.495 25.326,5.4495 25.284,5.3935 L25.2245,5.3235 C25.1396692,5.23833312 25.079236,5.13197072 25.0495,5.0155 C25.043596,4.99340306 25.0537645,4.9701609 25.074,4.9595 C25.0908279,4.94778258 25.1131721,4.94778258 25.13,4.9595 L25.172,4.9945 C25.3078772,5.09022916 25.4262708,5.20862283 25.522,5.3445 L25.8195,5.7575 C26.25,6.3455 26.698,6.958 27.083,7.5355 C27.16,7.6475 27.202,7.7105 27.258,7.7875 L27.3035,7.854 C27.3634011,7.94235826 27.4149564,8.03609509 27.4575,8.134 L27.4225,8.218 Z M26.95,6.776 L27.09,6.993 C27.1449106,7.01972501 27.189275,7.06408938 27.216,7.119 L27.216,7.14 C27.2360092,7.16960263 27.2360092,7.20839737 27.216,7.238 C27.2079856,7.25229464 27.1944301,7.26265081 27.1785314,7.2666255 C27.1626326,7.27060018 27.1457985,7.26784142 27.132,7.259 C27.1278897,7.27318254 27.1176028,7.28475526 27.104,7.2905 L27.104,7.2905 C27.0872856,7.28828266 27.0721574,7.27945792 27.062,7.266 C27.0471765,7.24358768 27.0365065,7.21869105 27.0305,7.1925 C27.021251,7.16519236 27.0082967,7.1392838 26.992,7.1155 L26.901,6.9895 L26.824,6.881 C26.677,6.6815 26.53,6.468 26.3865,6.265 C26.243,6.062 26.0785,5.824 25.921,5.6105 C25.7635,5.397 25.627,5.229 25.48,5.047 C25.333,4.865 25.1475,4.6305 24.99,4.41 C24.9585,4.3645 24.9165,4.3085 24.9445,4.249 C24.9725,4.1895 25.067,4.186 25.1265,4.207 C25.1544362,4.22201353 25.1756832,4.24700996 25.186,4.277 C25.1846293,4.28510915 25.1846293,4.29339085 25.186,4.3015 L25.2315,4.3645 L25.2315,4.3645 L25.5815,4.851 C25.7845,5.124 25.991,5.404 26.1835,5.6805 C26.4775,6.055 26.7015,6.405 26.95,6.776 Z M37.24,25.0425 L37.212,25.074 C37.114,25.179 37.079,25.2105 37.051,25.2105 L37.0335,25.2105 C37.0157027,25.2012718 37.0069085,25.180752 37.0125,25.1615 C37.0420333,25.0704348 37.1182238,25.0022643 37.212,24.983 C37.2206632,24.9779983 37.2313368,24.9779983 37.24,24.983 L37.338,25.039 L37.24,25.0425 Z M38.3635,24.766 C38.3293792,24.886852 38.2453552,24.9874261 38.1325,25.0425 C38.1070769,25.0475002 38.0809231,25.0475002 38.0555,25.0425 C37.9999292,25.0413362 37.9456304,25.0256499 37.898,24.997 C37.8544201,24.9741699 37.8293821,24.9268759 37.835,24.878 C37.8363326,24.8379897 37.8556163,24.800708 37.8875,24.7765 C37.9287333,24.7348235 37.9867116,24.714209 38.045,24.7205 C38.1101527,24.7273704 38.1758473,24.7273704 38.241,24.7205 L38.3285,24.7205 L38.388,24.7205 L38.3635,24.766 Z M38.948,24.416 C38.9333259,24.4365403 38.9101923,24.4493923 38.885,24.451 C38.8746515,24.4535227 38.8638485,24.4535227 38.8535,24.451 C38.8385184,24.4401315 38.828451,24.423772 38.8255,24.4055 C38.826247,24.3864052 38.8351723,24.3685545 38.85,24.3565 C38.85,24.318 38.9235,24.2445 38.955,24.2305 C38.9710236,24.2203341 38.9914764,24.2203341 39.0075,24.2305 C39.0565,24.276 38.9725,24.3985 38.948,24.4265 L38.948,24.416 Z M40.0505,23.6915 C39.9596759,23.8548819 39.7858851,23.9545758 39.599,23.9505 L39.5675,23.9505 C39.5610971,23.9672857 39.5515992,23.9827198 39.5395,23.996 C39.5395,23.996 39.522,24.0205 39.522,24.031 C39.522,24.115 39.3575,24.143 39.326,24.1465 L39.2875,24.1465 L39.2875,24.15 C39.3005737,24.0442301 39.3611267,23.9501797 39.452,23.8945 C39.4779897,23.8752478 39.5135103,23.8752478 39.5395,23.8945 C39.5497407,23.9032085 39.5580802,23.9139308 39.564,23.926 L39.564,23.926 C39.6553967,23.7631842 39.8288145,23.6637042 40.0155,23.667 L40.0785,23.667 L40.0505,23.6915 Z M40.2255,23.5655 L40.201,23.653 L40.1345,23.653 C40.1345,23.653 40.1345,23.6285 40.1345,23.6215 C40.075,23.6005 40.0925,23.534 40.096,23.5095 C40.0995,23.485 40.1205,23.422 40.1835,23.4255 L40.1835,23.4255 C40.1854872,23.4162724 40.1854872,23.4067276 40.1835,23.3975 L40.2535,23.3975 C40.25,23.45 40.25,23.52 40.2255,23.576 L40.2255,23.5655 Z M41.153,23.4745 L41.125,23.506 C41.027,23.6145 40.992,23.6495 40.9675,23.6495 L40.9465,23.6495 C40.9288424,23.6401763 40.9212437,23.6189001 40.929,23.6005 C40.9557003,23.5062992 41.0326088,23.4347879 41.1285,23.415 C41.1285,23.415 41.146,23.415 41.1565,23.415 L41.251,23.4675 L41.153,23.4745 Z M41.545,22.652 C41.4989039,22.6867511 41.4414667,22.7029834 41.384,22.6975 L41.3455,22.6975 L41.3455,22.7395 C41.2932283,22.9072682 41.1760229,23.0471585 41.02,23.128 L41.0585,23.128 L40.9535,23.1525 L40.887,23.1875 L40.887,23.1875 C40.8437814,23.2162762 40.7907709,23.2263735 40.74,23.2155 C40.74,23.2155 40.719,23.2155 40.677,23.261 C40.635,23.3065 40.649,23.2855 40.635,23.2855 C40.6283548,23.2886521 40.6206452,23.2886521 40.614,23.2855 L40.593,23.2855 L40.593,23.254 C40.6168292,23.1950647 40.6635647,23.1483292 40.7225,23.1245 C40.7825838,23.1036982 40.8479162,23.1036982 40.908,23.1245 C40.908,23.1245 40.908,23.1245 40.908,23.1 C40.908,23.0755 40.908,23.0685 40.9325,23.009 C40.9957618,22.862932 41.1264793,22.7570508 41.2825,22.7255 L41.2405,22.7255 L41.2755,22.68 L41.405,22.512 L41.5765,22.295 L41.524,22.4735 C41.5156844,22.4996891 41.5156844,22.5278109 41.524,22.554 C41.524,22.554 41.524,22.554 41.524,22.575 C41.5442528,22.5993006 41.5520177,22.6316545 41.545,22.6625 L41.545,22.652 Z M42.3255,22.547 C42.3255,22.547 42.2205,22.687 42.154,22.687 C42.1449414,22.6902027 42.1350586,22.6902027 42.126,22.687 L42.126,22.687 L42.126,22.666 C42.1629228,22.5942288 42.2185491,22.5337654 42.287,22.491 C42.3041084,22.4802134 42.3258916,22.4802134 42.343,22.491 C42.35,22.5085 42.35,22.5435 42.3255,22.5575 L42.3255,22.547 Z M42.252,22.148 C42.238298,22.1520851 42.223702,22.1520851 42.21,22.148 C42.192582,22.1475927 42.1761104,22.1399904 42.1645,22.127 L42.1645,22.099 L42.147,22.1235 C42.0702626,22.3201037 41.8883127,22.4558872 41.678,22.4735 L41.5975,22.4735 L41.5975,22.4315 C41.6593153,22.2071349 41.8733126,22.0595505 42.105,22.0815 L42.1505,22.0815 C42.1487706,22.0687249 42.1487706,22.0557751 42.1505,22.043 C42.1859454,21.9594557 42.2524557,21.8929454 42.336,21.8575 L42.364,21.8575 L42.364,21.8855 C42.4235,21.966 42.3185,22.1165 42.252,22.1585 L42.252,22.148 Z M42.637,22.2425 L42.637,22.2425 C42.6002453,22.2783311 42.5663112,22.3169458 42.5355,22.358 C42.518,22.3825 42.504,22.3965 42.49,22.3965 L42.4725,22.3965 L42.448,22.3965 L42.448,22.365 L42.448,22.365 C42.448,22.3265 42.5355,22.19 42.63,22.183 L42.6545,22.183 L42.637,22.2425 Z M43.141,21.9975 C43.1325305,22.0131637 43.1255017,22.0295644 43.12,22.0465 C43.12,22.0675 43.12,22.0885 43.078,22.0885 L43.05,22.0885 L43.05,22.0605 L43.05,22.0605 C43.0618028,21.9910342 43.0893383,21.9251884 43.1305,21.868 C43.1417436,21.8540333 43.1581506,21.8451988 43.176,21.8435 L43.176,21.8435 C43.1972968,21.8448947 43.2147622,21.8609046 43.218,21.882 C43.2168209,21.9347796 43.18743,21.9828738 43.141,22.008 L43.141,21.9975 Z M43.4385,21.721 C43.3997606,21.793933 43.3250334,21.8406375 43.2425,21.8435 C43.2205979,21.8483431 43.1979021,21.8483431 43.176,21.8435 L43.1095,21.8225 L43.1655,21.7805 C43.225,21.742 43.2845,21.693 43.344,21.6475 L43.386,21.616 L43.386,21.616 C43.3739703,21.5967228 43.3739703,21.5722772 43.386,21.553 C43.3971039,21.5368801 43.4154259,21.5272528 43.435,21.5272528 C43.4545741,21.5272528 43.4728961,21.5368801 43.484,21.553 C43.5085,21.5985 43.484,21.6545 43.4385,21.7315 L43.4385,21.721 Z M44.3695,20.7095 C44.3401867,20.9481853 44.1408808,21.129643 43.9005,21.1365 L43.827,21.1365 L43.862,21.07 C43.9519803,20.8734007 44.1191569,20.7226885 44.324,20.6535 L44.38,20.6535 L44.3695,20.7095 Z M44.6775,20.16 C44.6775,20.1915 44.6145,20.3525 44.5165,20.3735 L44.4955,20.3735 L44.4955,20.3035 L44.4955,20.3035 C44.5347573,20.2625671 44.5667188,20.2152168 44.59,20.1635 C44.611,20.1285 44.6215,20.1075 44.6495,20.118 L44.6775,20.118 L44.6775,20.16 Z M44.835,19.523 L44.716,19.6 L44.6425,19.649 C44.5686392,19.8815923 44.3856157,20.0633084 44.1525,20.1355 C44.1525,20.1985 44.0195,20.3315 43.9985,20.342 L43.96,20.3665 L43.96,20.3245 L43.96,20.3245 C43.96,20.363 43.96,20.391 43.96,20.419 C43.9625374,20.4621294 43.9625374,20.5053706 43.96,20.5485 C43.9412166,20.680652 43.8489023,20.7906146 43.722,20.832 C43.6398389,20.9794528 43.5085467,21.0934045 43.351,21.154 C43.3091571,21.2630769 43.2183801,21.3460731 43.106,21.378 C43.0395,21.406 42.966,21.4305 42.8925,21.455 L42.756,21.504 C42.7277472,21.5362173 42.7031009,21.5714264 42.6825,21.609 C42.616,21.798 42.5775,21.805 42.5635,21.805 L42.5355,21.805 L42.5355,21.777 C42.511,21.7035 42.672,21.497 42.714,21.455 C42.805,21.126 43.064,21.0805 43.3125,21.105 C43.3768346,20.9541381 43.5051933,20.8398989 43.6625,20.7935 C43.6804771,20.6022949 43.7736351,20.4260502 43.9215,20.3035 L43.988,20.2545 L43.988,20.2545 C44.0089954,20.2025592 44.0412738,20.1559348 44.0825,20.118 C44.0949638,20.1074461 44.1091781,20.0991544 44.1245,20.0935 C44.1728429,19.8548989 44.351601,19.6639527 44.5865,19.6 C44.618,19.4845 44.7195,19.46 44.8175,19.46 L44.94,19.46 L44.835,19.523 Z M45.066,19.173 C45.066,19.25 44.9925,19.418 44.891,19.432 L44.891,19.432 C44.8728934,19.4311896 44.8561435,19.4221704 44.8455,19.4075 C44.8028211,19.3384944 44.7901782,19.2550511 44.8105,19.1765 C44.835,19.0855 45.0485,18.956 45.1605,18.921 C45.1772806,18.7973736 45.2367002,18.683486 45.3285,18.599 L45.402,18.5325 L45.402,18.6305 C45.3916867,18.7253663 45.3566908,18.815873 45.3005,18.893 L45.3705,18.8755 L45.2235,18.977 L45.2025,18.977 L45.1675,19.0085 C45.1128363,19.0564181 45.0768827,19.1221263 45.066,19.194 L45.066,19.173 Z M45.4475,19.4495 C45.4489356,19.4895691 45.4322182,19.5281475 45.402,19.5545 C45.3560145,19.592931 45.2973823,19.6128909 45.2375,19.6105 L45.213,19.6105 C45.178,19.6105 45.171,19.5825 45.171,19.5755 C45.171,19.5685 45.199,19.516 45.346,19.4425 L45.3775,19.4425 L45.3775,19.362 L45.4545,19.453 L45.4475,19.4495 Z M45.9725,18.788 L45.9725,18.788 L45.9725,18.788 C45.983131,18.8676338 45.9496083,18.9467473 45.885,18.9945 C45.8673406,19.0065754 45.8468268,19.0138156 45.8255,19.0155 C45.8128556,19.018614 45.7996444,19.018614 45.787,19.0155 C45.7723296,19.0048565 45.7633104,18.9881066 45.7625,18.97 C45.7625,18.9245 45.815,18.8755 45.8815,18.8195 L45.9095,18.7915 L45.9305,18.767 C45.9305,18.767 45.9305,18.767 45.9305,18.767 C45.9167417,18.7364558 45.9253776,18.7004728 45.9515,18.6795 C45.9804035,18.6573253 46.0205965,18.6573253 46.0495,18.6795 C46.0678441,18.6899984 46.0765434,18.7117466 46.0705,18.732 C46.057303,18.7757397 46.0181202,18.8065262 45.9725,18.809 L45.9725,18.788 Z M46.1055,17.948 C46.1282519,17.9780083 46.1282519,18.0194917 46.1055,18.0495 C46.0233079,18.1108339 45.9270309,18.1505481 45.8255,18.165 L45.521,18.4135 L45.556,18.305 C45.584,18.214 45.6785,18.1615 45.7555,18.1195 L45.7905,18.1195 C45.8509252,18.0468436 45.9245539,17.9862781 46.0075,17.941 L46.039,17.941 L46.039,17.871 L46.2455,17.822 L46.2455,17.892 L46.1895,17.913 C46.1627381,17.9265446 46.1345691,17.937108 46.1055,17.9445 L46.081,17.9445 C46.0906068,17.9510869 46.0989131,17.9593932 46.1055,17.969 L46.1055,17.948 Z" id="Shape"></path>
                <polygon id="Path" points="45.2165 19.5755 45.22 19.5755 45.22 19.5615 45.22 19.5615"></polygon>
                <path d="M5.25,62.9195 C4.76010691,63.2451372 4.32530824,63.6468533 3.962,64.1095 C3.9025,63.434 3.997,62.4155 3.262,62.335 C2.436,62.244 1.4595,63.9135 1.421,65.2855 C1.3825,66.6575 1.7955,67.781 2.6915,67.977 C4.501,68.376 6.5065,65.6635 6.825,64.225 C7.091,63.1155 6.608,62.034 5.25,62.9195 Z" id="Path"></path>
                <polygon id="Path" points="58.7405 32.2315 58.7405 41.5345 48.328 41.5345 48.328 32.2315 42.784 32.2315 42.784 57.274 48.328 57.274 48.328 46.774 58.7405 46.774 58.7405 57.274 64.2845 57.274 64.2845 32.2315"></polygon>
                <path d="M82.95,49.084 C82.95,43.106 79.73,40.2465 74.7565,40.2465 C69.678,40.2465 66.0275,43.5015 66.0275,49.084 C66.0275,54.334 69.713,57.8130818 75.257,57.8130818 C77.6703363,57.8216 80.0375681,57.1521779 82.089,55.881 L80.1255,51.8 C78.7012494,52.7409964 77.0405627,53.2614015 75.334,53.3015 C73.115,53.3015 71.484,52.3705 71.1095,50.295 L82.95,50.295 L82.95,49.084 Z M71.1445,47.1135 C71.393,44.968 72.7545,44.0755 74.578,44.0755 C76.328,44.0755 77.6545,45.185 77.728,47.1135 L71.1445,47.1135 Z" id="Shape"></path>
                <path d="M94.9865,40.25 C92.3755,40.25 90.482,41.3945 89.5125,44.1 L89.4425,44.1 L89.4425,40.7365 L84.147,40.7365 L84.147,57.2635 L89.551,57.2635 L89.551,51.1945 C89.551,46.97 91.014,45.647 94.6295,45.647 L95.095,45.647 L95.095,40.25 L94.9865,40.25 Z" id="Path"></path>
                <path d="M111.9755,49.084 C111.9755,43.106 108.7555,40.2465 103.7855,40.2465 C98.7035,40.2465 95.0565,43.5015 95.0565,49.084 C95.0565,54.334 98.742,57.8130818 104.286,57.8130818 C106.699336,57.8216 109.066568,57.1521779 111.118,55.881 L109.151,51.8 C107.725256,52.7405883 106.063573,53.2609254 104.356,53.3015 C102.137,53.3015 100.506,52.3705 100.135,50.295 L111.9755,50.295 L111.9755,49.084 Z M100.17,47.1135 C100.422,44.968 101.78,44.0755 103.607,44.0755 C105.357,44.0755 106.68,45.185 106.757,47.1135 L100.17,47.1135 Z" id="Shape"></path>
                <path d="M156.1,41.65 C155.9775,41.622 155.8655,41.6045 155.75,41.587 C155.545398,41.5497523 155.338346,41.5275263 155.1305,41.5205 C154.685744,41.5451178 154.249776,41.6544069 153.846,41.8425 C153.335,42.1411667 152.811167,42.483 152.2745,42.868 C151.749361,43.2455702 151.245742,43.6522047 150.766,44.086 L147.238,48.5135 L146.79,48.832 L146.5975,48.832 L146.5975,48.706 C146.652959,48.5404983 146.674388,48.3654932 146.6605,48.1915 C146.791167,47.8485 146.973167,47.4215 147.2065,46.9105 C147.439833,46.3995 147.673167,45.8745 147.9065,45.3355 C148.139833,44.7988333 148.353333,44.2971667 148.547,43.8305 C148.706679,43.453339 148.845718,43.0677691 148.9635,42.6755 C149.010687,42.5841872 149.043731,42.4862368 149.0615,42.385 L149.1595,41.9055 C149.16722,41.7514561 149.092604,41.6048884 148.9635,41.5205 C148.871646,41.4669592 148.812565,41.3711161 148.806,41.265 C148.781587,41.134706 148.748853,41.0061094 148.708,40.88 C148.622769,40.7522296 148.476355,40.6790222 148.323,40.6875 L148.1935,40.6875 C148.194329,40.5175983 148.126116,40.3546459 148.0045,40.236 L147.231,39.9805 L147.105,39.9805 C147.063,39.9805 147.049,39.9805 147.0735,40.012 C147.098,40.0435 147.0735,40.068 146.9755,40.11 C146.834915,40.1750832 146.705087,40.2612419 146.5905,40.3655 L146.335,40.621 C146.171879,41.4531573 145.947263,42.2720702 145.663,43.071 C145.383,43.841 145.072667,44.632 144.732,45.444 C144.525762,45.9063366 144.348095,46.3808954 144.2,46.865 C144.056253,46.8783792 143.922101,46.942971 143.822,47.047 L143.3075,47.432 C143.099372,47.5163839 142.896062,47.6121964 142.6985,47.719 C142.484476,47.8374477 142.259411,47.9347415 142.0265,48.0095 C141.516909,48.2647727 140.978809,48.4586299 140.4235,48.587 C140.0385,48.6745 139.65,48.748 139.2685,48.811 C138.887,48.874 138.4985,48.951 138.11,49.0385 C137.942,49.0385 137.8545,48.972 137.8545,48.8425 C137.859382,48.7934333 137.883246,48.7482172 137.921,48.7165 C137.910075,48.6264964 137.932486,48.5356078 137.984,48.461 C137.90742,48.3595709 137.862382,48.2378476 137.8545,48.111 C137.851465,47.9688889 137.830294,47.8277472 137.7915,47.691 C137.786865,47.3396628 137.589082,47.0194436 137.277,46.858 C137.194933,46.8177649 137.109424,46.784967 137.0215,46.76 C136.915394,46.7397704 136.807505,46.7303888 136.6995,46.732 C136.655903,46.7294529 136.613167,46.718769 136.5735,46.7005 C136.490311,46.6720421 136.402086,46.661312 136.3145,46.669 C136.010372,46.6496136 135.705486,46.6924882 135.4185,46.795 C134.996047,46.9405318 134.59652,47.1455984 134.232,47.404 C133.932231,47.6101488 133.716191,47.9168267 133.623,48.2685 L133.623,48.4645 C133.569564,48.538229 133.546965,48.6298807 133.56,48.72 C133.50645,48.8201314 133.504805,48.9400185 133.555586,49.0415818 C133.606368,49.143145 133.703265,49.213761 133.8155,49.231 L134.071,49.4865 C134.275941,49.5698184 134.469889,49.6779591 134.6485,49.8085 C134.825566,49.9414354 135.019834,50.049755 135.226,50.1305 C135.4395,50.1725 135.548,50.26 135.548,50.386 L135.4815,50.708 C135.451369,50.8844395 135.398425,51.0562126 135.324,51.219 C135.253259,51.3632188 135.198114,51.5145761 135.1595,51.6705 C135.073653,51.9760051 134.967244,52.2753548 134.841,52.5665 C134.730374,52.831645 134.60174,53.0889121 134.456,53.3365 L133.56,54.8765 C133.082672,55.8270481 132.45378,56.6935482 131.698,57.442 C131.604679,57.535027 131.495674,57.6108563 131.376,57.666 C131.258232,57.7241145 131.150668,57.8009454 131.0575,57.8935 C130.911041,58.0106393 130.730461,58.0769748 130.543,58.0825 C130.366592,58.057454 130.206374,57.9660796 130.095,57.827 L129.836,57.6345 C129.787417,57.5310572 129.745335,57.4246839 129.71,57.316 C129.668666,57.1906273 129.647404,57.0595102 129.647,56.9275 C129.51745,56.62322 129.494027,56.2842052 129.5805,55.965 L129.5805,55.195 C129.577571,55.0839775 129.600329,54.973779 129.647,54.873 L130.095,52.6925 C130.211069,52.3884991 130.30809,52.0775637 130.3855,51.7615 C130.453528,51.4637489 130.549624,51.1731159 130.6725,50.8935 C130.7145,50.6835 130.7495,50.491 130.767,50.316 C130.7845,50.141 130.823,49.966 130.865,49.805 C131.084408,49.451092 131.267345,49.0758373 131.411,48.685 C131.558,48.279 131.7225,47.8835 131.8905,47.4985 C131.978,47.2815 132.062,47.0575 132.1495,46.823 C132.232054,46.5885521 132.338796,46.3633377 132.468,46.151 C132.6815,45.801 132.916,45.4335 133.168,45.0275 C133.42,44.6215 133.658,44.2015 133.868,43.778 C133.997539,43.6033576 134.114501,43.4197282 134.218,43.2285 C134.342766,43.0183993 134.506739,42.8342275 134.701,42.686 L134.764,42.56 C134.778446,42.4486757 134.756336,42.3356714 134.701,42.238 L134.568,42.1715 C134.5295,42.1715 134.5085,42.1505 134.5085,42.1085 C134.355639,42.0026178 134.178821,41.9364613 133.994,41.916 L133.672,41.916 C133.514746,41.8318838 133.339335,41.7874301 133.161,41.7865 C132.880468,41.7650657 132.60307,41.8571115 132.391,42.042 L131.8135,42.4305 C131.583757,42.6620953 131.369778,42.9088138 131.173,43.169 C130.974185,43.4274486 130.759082,43.6729474 130.529,43.904 C130.3155,44.254 130.0915,44.604 129.857,44.954 C129.6225,45.304 129.3775,45.654 129.1185,46.004 L129.0555,46.1335 C128.985306,46.1888843 128.93897,46.269033 128.926,46.3575 C128.913926,46.4454433 128.868886,46.5255133 128.8,46.5815 C128.719361,46.8212293 128.622298,47.0551166 128.5095,47.2815 C128.397743,47.5079075 128.301845,47.7418036 128.2225,47.9815 C128.120083,48.1574987 128.02663,48.3385631 127.9425,48.524 L127.162,48.7235 C126.7525,48.8285 126.5845,48.902 126.658,48.937 C126.424963,49.0462636 126.169818,49.1001674 125.9125,49.0945 C125.6325,49.1645 125.3665,49.238 125.118,49.308 C124.8695,49.378 124.607,49.4515 124.3235,49.5215 C123.83,49.6615 123.3505,49.7875 122.8885,49.8925 L121.513,50.211 C121.390304,50.2413331 121.264807,50.2589263 121.1385,50.2635 C121.0685,50.2635 121.0335,50.2635 121.0335,50.2355 C121.0335,50.2075 120.9985,50.211 120.9285,50.211 C120.80316,50.2133689 120.678576,50.2309987 120.5575,50.2635 C120.289112,50.332516 120.011676,50.3596694 119.735,50.344 C119.437621,50.3284843 119.140137,50.3725119 118.86,50.4735 C118.746557,50.5377793 118.619303,50.5737946 118.489,50.5785 L118.489,50.5785 C118.2755,50.708 118.055,50.8235 117.8415,50.9285 L118.0025,50.708 C118.1917,50.4306238 118.394966,50.1631076 118.6115,49.9065 C119.151676,49.2839971 119.655353,48.6307371 120.12,47.95 C120.5645,47.2885 121.0265,46.592 121.4955,45.85 C122.213402,44.9227069 122.867092,43.9474346 123.452,42.931 C124.033,41.9265 124.6175,40.8695 125.202,39.7565 L126.224,37.639 C126.542859,37.0937862 126.822403,36.526512 127.0605,35.9415 C127.275167,35.4048333 127.488667,34.839 127.701,34.244 C127.9145,33.6 128.121,32.9805 128.31,32.382 C128.510441,31.7511361 128.670597,31.1081743 128.7895,30.457 C128.8946,30.307321 128.940717,30.124099 128.919,29.9425 C128.960971,29.809097 128.972923,29.6680635 128.954,29.5295 C128.929529,29.3696845 128.917825,29.2081739 128.919,29.0465 C128.77964,28.3693157 128.327868,27.7981096 127.701,27.5065 C127.296008,27.3301709 126.858177,27.2418889 126.4165,27.2475 C126.053805,27.2207764 125.699332,27.3643767 125.4575,27.636 C125.1565,27.8495 124.88,28.0525 124.621,28.245 C124.361922,28.4405408 124.126948,28.666116 123.921,28.917 C123.643375,29.3299754 123.343082,29.7272509 123.0215,30.107 C122.670696,30.5217118 122.34909,30.9602649 122.059,31.4195 L121.2925,32.8195 C121.022373,33.3045985 120.721944,33.7721918 120.393,34.2195 L119.364,36.204 C119.293235,36.3923981 119.207806,36.5749576 119.1085,36.75 C119.011274,36.9261096 118.925918,37.1085154 118.853,37.296 L118.531,37.8735 L117.635,40.2465 C117.4635,40.803 117.285,41.3245 117.089,41.818 C116.893,42.3115 116.6935,42.812 116.48,43.3265 C116.2665,43.925 116.053,44.5305 115.836,45.1535 C115.619,45.7765 115.409,46.382 115.1955,46.9805 L114.17,50.1305 L113.61,52.1115 C113.2985,53.319 112.9765,54.4565 112.4025,56.3115 C112.2835,56.6615 112.168,57.0115 112.0525,57.3825 C111.9125,57.988 111.7515,58.5865 111.5765,59.1885 C111.4015,59.7905 111.2265,60.3925 111.097,60.991 C110.788981,62.0669564 110.575833,63.1678331 110.46,64.281 C110.394317,64.4039736 110.358356,64.5406246 110.355,64.68 C110.353646,64.8134776 110.336016,64.9462917 110.3025,65.0755 C110.233367,65.2734825 110.188703,65.4791755 110.1695,65.688 C110.149914,65.8956247 110.105256,66.1001134 110.0365,66.297 L110.0365,66.85 C109.995331,67.0063478 109.977637,67.167948 109.984,67.3295 C109.946429,67.4117603 109.928457,67.5016168 109.931169,67.592 C109.933578,67.6730018 109.941768,67.7537312 109.956,67.8335 C109.973293,67.9308136 109.964847,68.0309572 109.931169,68.124 L109.984,70.245 C109.981034,70.6106741 110.01741,70.9756065 110.0925,71.3335 C110.161791,71.6706883 110.306583,71.9877938 110.516,72.261 C110.687566,72.6844766 110.9237,73.0788194 111.216,73.43 C111.510906,73.7745312 111.866868,74.061674 112.266,74.277 C112.350291,74.3346713 112.437947,74.3872646 112.5285,74.4345 C112.612131,74.4716514 112.703025,74.4895909 112.7945,74.487 C112.866536,74.4876827 112.938224,74.4970844 113.008,74.515 C113.077776,74.5329156 113.149464,74.5423173 113.2215,74.543 C113.560308,74.5410688 113.898042,74.5047154 114.2295,74.4345 C114.566448,74.3686967 114.888877,74.2430441 115.1815,74.0635 C115.556353,73.8697883 115.908515,73.6350138 116.2315,73.3635 C116.557102,73.0699856 116.866714,72.7592052 117.159,72.4325 C117.810613,71.6668696 118.346015,70.8095193 118.748,69.888 C118.9265,69.461 119.098,69.0305 119.308,68.5895 C119.518,68.1485 119.6895,67.6795 119.8645,67.1895 C120.106027,66.6023794 120.309449,66.0002973 120.4735,65.387 C120.635644,64.7947111 120.752646,64.1909807 120.8235,63.581 C120.862,63.336 120.897,63.105 120.932,62.881 C120.967,62.657 121.002,62.4365 121.037,62.181 C121.106992,61.7064867 121.152552,61.2286899 121.1735,60.7495 C121.186735,60.2883682 121.1598,59.8269596 121.093,59.3705 C121.019195,58.8789183 120.974783,58.3833714 120.96,57.8865 C120.940116,57.3783753 120.840919,56.8764825 120.666,56.399 C120.349248,55.1959839 119.809021,54.0632885 119.0735,53.06 L118.811,52.794 L118.8635,52.7415 C118.8635,52.7065 118.8985,52.654 118.9685,52.5805 L119.287,52.423 C119.569333,52.318 119.772333,52.2375 119.896,52.1815 C120.022,52.1325 120.12,52.087 120.19,52.052 C120.276178,52.0109964 120.36505,51.9759151 120.456,51.947 C120.561,51.9085 120.736,51.856 120.9845,51.786 C121.6565,51.6063333 122.301667,51.4383333 122.92,51.282 C123.5395,51.1245 124.152,50.953 124.7505,50.778 C125.1425,50.673 125.5205,50.5855 125.8915,50.512 C126.279017,50.4383017 126.659557,50.3317504 127.029,50.1935 C127.102859,50.1926814 127.175676,50.1759694 127.2425,50.1445 L127.2425,50.1445 C127.2425,50.2635 127.1935,50.4945 127.12,50.8445 C127.0745,50.9705 127.0325,51.0895 126.9905,51.1945 C126.947942,51.3062407 126.926578,51.4249329 126.9275,51.5445 L126.6055,52.892 C126.6055,52.976 126.5425,53.0425 126.413,53.0845 C126.416568,53.2845791 126.372162,53.4826027 126.2835,53.662 C126.286992,53.6976159 126.27559,53.733089 126.252,53.76 C126.23145,53.7856774 126.221439,53.8182117 126.224,53.851 C126.2484,53.9644139 126.290948,54.0731456 126.35,54.173 C126.259542,54.3752821 126.216448,54.5955422 126.224,54.817 C126.169685,55.0259292 126.147265,55.2418688 126.1575,55.4575 C126.138191,55.4734576 126.127011,55.4972003 126.127011,55.52225 C126.127011,55.5472997 126.138191,55.5710424 126.1575,55.587 C126.157988,55.7265469 126.169692,55.8658288 126.1925,56.0035 C126.213725,56.1835508 126.224243,56.3647027 126.224,56.546 C126.251098,57.1598345 126.558086,57.7273748 127.057,58.086 C127.250741,58.2853963 127.478251,58.4489195 127.729,58.569 C127.988665,58.6844467 128.256574,58.7803791 128.5305,58.856 L129.2305,59.0485 C129.496864,59.1780737 129.777659,59.2755886 130.067,59.339 C130.368,59.402 130.6445,59.4545 130.9035,59.4965 L131.0925,59.4965 C131.573394,59.4928255 132.048949,59.3953367 132.4925,59.2095 C132.923186,59.0433925 133.315999,58.7922304 133.6475,58.471 C133.730383,58.2618606 133.862444,58.0757743 134.0325,57.9285 C134.190488,57.7935518 134.321175,57.6295997 134.4175,57.4455 C134.713276,57.1119767 134.971493,56.7469513 135.1875,56.357 L135.828,55.202 C136.037073,54.8348601 136.209408,54.4479857 136.3425,54.047 C136.472,53.662 136.619,53.256 136.794,52.829 C136.993333,52.4768213 137.142922,52.0987282 137.2385,51.7055 C137.331831,51.3194545 137.461925,50.9432365 137.627,50.582 C137.627,50.3685 137.753,50.232 138.012,50.197 L138.46,50.197 C138.611718,50.1997024 138.762912,50.1784408 138.908,50.134 C139.306975,50.1330643 139.704717,50.089653 140.0945,50.0045 L141.344,49.749 C141.693171,49.6624857 142.036797,49.5549565 142.373,49.427 C142.714811,49.2995176 143.038409,49.1277166 143.3355,48.916 L143.521,48.825 C143.423,49.175 143.318,49.525 143.192,49.875 C143.000667,50.428 142.797667,51.0043333 142.583,51.604 C142.410333,52.248 142.217833,52.8896667 142.0055,53.529 C141.793167,54.1683333 141.591333,54.852 141.4,55.58 C141.270412,55.9667542 141.173243,56.3636245 141.1095,56.7665 C141.0465,57.1725 140.9695,57.5435 140.8855,57.89 C140.785551,58.0618053 140.722383,58.2525009 140.7,58.45 C140.658,58.6215 140.7455,58.73 140.959,58.772 C141.029212,58.7626645 141.099767,58.786564 141.149851,58.8366486 C141.199936,58.8867331 141.223835,58.9572877 141.2145,59.0275 C141.215552,59.0628128 141.20443,59.0974135 141.183,59.1255 C141.158758,59.1506208 141.147179,59.1853582 141.1515,59.22 C141.27582,59.1078341 141.383116,58.9781357 141.47,58.835 L141.596,58.835 L141.596,58.9645 C141.602397,59.0329388 141.580949,59.1010685 141.5365,59.1535 C141.488782,59.2071767 141.464798,59.2778682 141.47,59.3495 L141.47,59.542 C141.428,59.7555 141.554,59.892 141.855,59.927 C141.958571,59.9145832 142.05984,59.9638494 142.114,60.053 C142.198,60.1825 142.198,60.291 142.114,60.375 C142.159733,60.5076744 142.293773,60.5886874 142.4325,60.5675 C142.532705,60.5608069 142.626023,60.514148 142.6915,60.438 C142.928654,60.2454112 143.124988,60.0074304 143.269,59.738 C143.395,59.388 143.5455,59.038 143.7135,58.646 C143.889169,58.2497788 144.039962,57.8429895 144.165,57.428 C144.285455,57.0583988 144.424465,56.6951044 144.5815,56.3395 C144.738674,55.9838918 144.921142,55.6400102 145.1275,55.3105 L146.986,52.36 C148.501378,50.243372 150.128869,48.2093006 151.8615,46.2665 C152.610301,45.4668203 153.430352,44.7369746 154.3115,44.086 C154.634204,43.8009459 155.003607,43.573621 155.4035,43.414 C155.5295,43.365 155.6485,43.3195 155.7535,43.281 C155.990844,43.1944807 156.232698,43.120873 156.478,43.0605 C156.636619,43.0536213 156.791349,43.0092415 156.9295,42.931 C156.975064,42.8776523 156.997708,42.808464 156.9925,42.7385 L156.9925,42.7 C156.856,42.042 156.555,41.7025 156.1,41.65 Z M134.4,48.265 L134.4,48.202 C134.484,48.202 134.5295,48.223 134.5295,48.265 L134.4,48.265 Z M134.848,48.3945 L134.722,48.3945 C134.704418,48.3966221 134.686805,48.3908023 134.673949,48.3786229 C134.661093,48.3664435 134.654331,48.3491705 134.6555,48.3315 L134.9775,47.817 L135.1665,47.817 L134.848,48.3945 Z M121.9505,43.4 C122.0345,43.1445 122.1185,42.994 122.206,42.9485 C122.219163,42.7507873 122.311228,42.5666583 122.4615,42.4375 C122.449923,42.63564 122.357566,42.8203546 122.206,42.9485 C122.206,43.2005 122.1185,43.351 121.9505,43.4 Z M122.9095,42.9485 C122.9095,43.078 122.8255,43.1865 122.654,43.2705 L122.3985,43.6555 L122.3985,43.589 C122.3985,43.505 122.4825,43.4 122.654,43.2705 C122.654,43.015 122.7415,42.8645 122.9095,42.8225 L122.9095,42.9485 Z M122.9095,42.693 C122.99247,42.5275804 123.101154,42.3763683 123.2315,42.245 C123.267445,42.4593845 123.123635,42.662595 122.9095,42.7 L122.9095,42.693 Z M123.298,42.245 L123.298,42.1155 C123.33597,41.9935 123.4315,41.8979697 123.5535,41.86 C123.510811,42.010017 123.421288,42.1424615 123.298,42.238 L123.298,42.245 Z M123.872,41.3455 C123.83,41.6045 123.725,41.7515 123.5535,41.7935 C123.546059,41.5892996 123.676689,41.4055564 123.872,41.3455 C123.834733,41.312339 123.812087,41.2657893 123.809,41.216 C123.812235,41.167246 123.834938,41.1218405 123.872,41.09 L123.872,41.3455 Z M127.5295,33.327 C127.488112,33.548711 127.376435,33.7512031 127.211,33.9045 L127.1445,34.1635 C127.148191,34.3624705 127.103764,34.5593883 127.015,34.7375 C126.931,34.9125 126.847,35.0875 126.7595,35.315 C126.701532,35.4153797 126.659054,35.5239366 126.6335,35.637 C126.549204,35.7547628 126.483129,35.8845524 126.4375,36.022 L125.9265,37.303 L125.734,37.562 C125.739047,37.6821979 125.658428,37.7892008 125.5415,37.8175 C125.557772,38.1974351 125.418786,38.5676428 125.1565,38.843 C125.075019,39.2011024 124.870692,39.5193578 124.579,39.7425 C124.541419,40.0353145 124.405703,40.3067466 124.194,40.5125 C124.197074,40.633097 124.150215,40.7496113 124.0645,40.8345 L124.0015,40.9605 C123.97384,40.959992 123.946781,40.9686016 123.9245,40.985 L124.0015,40.8345 L124.0645,40.8345 C124.0645,40.663 124.11,40.5545 124.194,40.5125 L124.194,40.383 C124.269836,40.14204 124.401787,39.9225229 124.579,39.7425 C124.691833,39.398415 124.890603,39.0888143 125.1565,38.843 L125.1565,38.654 C125.203695,38.3445332 125.337125,38.0546245 125.5415,37.8175 L125.671,37.562 C125.757746,37.2106752 125.874853,36.8675516 126.021,36.5365 C126.152728,36.2225096 126.313246,35.9213909 126.5005,35.637 C126.476817,35.4626951 126.586186,35.2978932 126.756,35.252 C126.75051,35.0213079 126.794674,34.7921311 126.8855,34.58 C126.9695,34.384 127.078,34.1635 127.2075,33.9045 C127.210908,33.7607537 127.243038,33.6191416 127.302,33.488 C127.361855,33.3416961 127.436935,33.2020946 127.526,33.0715 L127.5295,33.327 Z M127.5645,30.6355 C127.5645,30.6355 127.5925,30.611 127.5925,30.569 L127.5925,30.891 C127.558416,30.8318794 127.536965,30.7663324 127.5295,30.6985 C127.5295,30.6495 127.54,30.6285 127.5645,30.6285 L127.5645,30.6355 Z M126.8645,32.0775 C126.891433,32.0044886 126.948989,31.9469333 127.022,31.92 C127.01712,31.7886478 126.997156,31.658292 126.9625,31.5315 L127.0885,31.5315 L127.0885,31.598 L127.1515,31.724 L127.1515,31.92 L127.344,31.276 L127.5995,30.954 L127.5365,31.213 L127.407,31.9795 C127.363912,32.2417952 127.300726,32.5003902 127.218,32.753 C126.868,33.733 126.518,34.6955 126.0945,35.637 C125.686514,36.5818874 125.22493,37.5027182 124.712,38.395 C124.63721,38.4971191 124.593462,38.6186427 124.586,38.745 C124.575029,38.8918674 124.530742,39.034305 124.4565,39.1615 L124.201,39.4835 C124.142804,39.782371 123.984848,40.0526238 123.753,40.25 C123.772099,40.4237922 123.699123,40.5949534 123.5605,40.7015 C123.549808,40.8502503 123.480585,40.9886961 123.368,41.0865 C123.3898,41.259568 123.280835,41.42227 123.1125,41.468 C123.132468,41.6931 123.001192,41.9042829 122.7905,41.986 L122.7275,42.112 C122.746247,42.2510853 122.666387,42.384669 122.535,42.434 C122.535,42.175 122.619,42.028 122.7905,41.986 C122.794443,41.7672672 122.9181,41.5683405 123.1125,41.468 L123.1755,41.342 C123.1755,41.2545 123.2385,41.1705 123.368,41.0865 C123.359522,40.9331453 123.43273,40.7867306 123.5605,40.7015 L123.5605,40.509 C123.5605,40.4215 123.6235,40.3375 123.753,40.25 C123.827899,40.1055101 123.892234,39.955785 123.9455,39.802 C123.983299,39.6819785 124.049309,39.5727623 124.138,39.4835 C124.179229,39.4010335 124.210933,39.3141404 124.2325,39.2245 L124.3305,38.8395 L124.586,38.262 L124.586,38.199 C124.586,38.115 124.607,38.0625 124.649,38.038 C124.708088,38.0009144 124.753534,37.9456421 124.7785,37.8805 C124.911712,37.7023494 125.02004,37.5068866 125.1005,37.2995 C125.1845,37.0895 125.272,36.8935 125.356,36.722 L125.23,36.722 C125.314245,36.6378304 125.35986,36.5225243 125.356,36.4035 C125.34903,36.3478462 125.360069,36.2914231 125.3875,36.2425 C125.412,36.2215 125.419,36.169 125.419,36.085 C125.5485,35.9555 125.6115,35.8715 125.6115,35.826 C125.6115,35.7805 125.6115,35.763 125.643,35.763 C125.6745,35.763 125.678,35.742 125.678,35.7 C125.678,35.658 125.678,35.6335 125.643,35.6335 C125.608,35.6335 125.6115,35.6125 125.6115,35.567 C125.701994,35.6202148 125.752724,35.7216763 125.741,35.826 C125.886959,35.5730339 125.975388,35.2910155 126,35 C125.948542,34.9240499 125.926176,34.8321 125.937,34.741 L126,34.678 C126,34.51 126.042,34.4015 126.1295,34.356 C126.131928,34.2230002 126.205374,34.101479 126.322,34.0375 C126.2345,33.95 126.1925,33.887 126.1925,33.845 C126.1925,33.803 126.2345,33.7365 126.322,33.6525 C126.364,33.439 126.3955,33.2675 126.42,33.1415 C126.454299,32.9921454 126.562558,32.8706838 126.707,32.8195 L126.707,32.55 C126.696799,32.4589386 126.719113,32.3672023 126.77,32.291 C126.8015,32.2 126.833,32.1335 126.8575,32.0705 L126.8645,32.0775 Z M126.063,30.954 C126.154906,30.7055987 126.309186,30.4850263 126.511,30.3135 L126.6405,30.3135 C126.6405,30.3555 126.658,30.3765 126.7035,30.3765 L126.6405,30.569 C126.637856,30.7528499 126.615563,30.9358903 126.574,31.115 C126.532,31.3075 126.49,31.5105 126.4445,31.724 C126.231,32.3225 126.0315,32.942 125.8355,33.586 C125.646246,34.2175181 125.421897,34.8379827 125.1635,35.4445 C124.908,36.0885 124.6385,36.7185 124.362,37.3345 C124.0855,37.9505 123.795,38.5875 123.494,39.228 C123.161568,39.7274604 122.872353,40.254371 122.6295,40.803 C122.388093,41.3507971 122.097573,41.8756069 121.7615,42.371 C121.4115,42.84 121.121,43.2915 120.8655,43.7185 C120.61,44.1455 120.3545,44.597 120.0955,45.066 C119.882,45.416 119.679,45.7065 119.4865,45.962 C119.294,46.2175 119.091,46.522 118.8775,46.8615 C118.853424,46.9280662 118.807858,46.9847151 118.748,47.0225 C118.677628,47.0682781 118.613,47.1223307 118.5555,47.1835 L118.4925,47.1835 C118.4925,47.1415 118.4925,47.117 118.461,47.117 C118.4295,47.117 118.4295,47.117 118.4295,47.054 L118.4925,46.928 C118.495587,46.8782107 118.518233,46.831661 118.5555,46.7985 C118.769,46.2 118.9755,45.6015 119.1645,44.9995 C119.355616,44.4104365 119.581171,43.8331087 119.84,43.2705 C120.054667,42.6731667 120.278667,42.0898333 120.512,41.5205 C120.75,40.943 120.9705,40.355 121.1875,39.7705 C121.402468,39.2529842 121.649102,38.7491974 121.926,38.262 C122.2025,37.772 122.4685,37.2715 122.7275,36.7535 C122.939409,36.141771 123.215093,35.5540357 123.55,35 L124.5755,33.3305 C124.7925,32.9455 125.0235,32.55 125.2755,32.144 C125.5275,31.738 125.8005,31.3355 126.056,30.947 L126.063,30.954 Z M124.586,31.598 C124.575075,31.5079964 124.597486,31.4171078 124.649,31.3425 L124.845,31.1465 C124.845,31.4965 124.7365,31.703 124.523,31.787 L124.586,31.598 Z M124.523,31.8535 C124.506021,32.0506117 124.382419,32.2225794 124.201,32.3015 C123.9035,32.7705 123.6235,33.2535 123.368,33.747 C123.1125,34.2405 122.8745,34.72 122.668,35.189 C121.641709,36.9431258 120.782756,38.7899328 120.1025,40.705 C119.7175,41.6045 119.3535,42.5005 119.014,43.4 C118.6745,44.2995 118.349,45.2165 118.0515,46.158 C117.922,46.368 117.8275,46.5395 117.761,46.6725 C117.686139,46.8140625 117.589266,46.942834 117.474,47.054 C117.496395,47.2356416 117.450217,47.4191042 117.3445,47.5685 C117.343557,47.7078911 117.333032,47.8470525 117.313,47.985 C117.287022,48.1449803 117.208152,48.29163 117.089,48.4015 C117.140216,48.4762415 117.162599,48.5670164 117.152,48.657 C117.075935,48.8124718 116.990615,48.9632424 116.8965,49.1085 C116.871836,48.8593851 116.940424,48.6099737 117.089,48.4085 L117.152,48.0865 C117.144345,47.8971306 117.213803,47.7127503 117.3445,47.5755 C117.385633,47.4964312 117.408366,47.4090891 117.411,47.32 C117.411897,47.2299823 117.433451,47.1413724 117.474,47.061 L117.5405,46.935 C117.542232,46.782664 117.562208,46.631084 117.6,46.4835 C117.637536,46.3594959 117.659866,46.2313906 117.6665,46.102 L117.6665,45.969 C117.962294,45.4217438 118.219584,44.854536 118.4365,44.2715 C118.648833,43.6951667 118.862333,43.1118333 119.077,42.5215 C119.674333,40.9395 120.3055,39.3785 120.9705,37.8385 C121.63842,36.2856046 122.421086,34.7846187 123.312,33.348 C123.47379,33.1503379 123.613455,32.9355586 123.7285,32.7075 C123.844682,32.4825842 124.008278,32.2855524 124.208,32.13 C124.2799,32.0075947 124.387316,31.909943 124.516,31.85 L124.523,31.8535 Z M121.023,35.7035 C121.471,34.804 121.954,33.929 122.465,33.0715 C122.852244,32.6872655 123.158157,32.2289917 123.3645,31.724 C123.388543,31.631097 123.431431,31.5441296 123.4905,31.4685 L123.6865,31.276 C123.685533,31.1914514 123.719766,31.1103077 123.781,31.052 L123.942,30.891 L123.942,30.765 L124.068,30.765 C124.033357,30.7603148 123.998513,30.7720742 123.973794,30.7967936 C123.949074,30.821513 123.937315,30.8563569 123.942,30.891 L123.942,31.0205 C123.90403,31.1425 123.8085,31.2380303 123.6865,31.276 C123.690167,31.5661323 123.573613,31.8448487 123.3645,32.046 C122.9375,32.7705 122.5175,33.509 122.1115,34.258 C121.7055,35.007 121.331,35.7455 120.9915,36.47 C120.393,37.6705 119.8575,38.885 119.385,40.1275 C118.9125,41.37 118.426,42.609 117.9115,43.848 L115.5385,51.03 C115.537603,51.1200177 115.516049,51.2086276 115.4755,51.289 L115.346,51.5445 L115.283,51.6075 C115.245246,51.5757828 115.221382,51.5305667 115.2165,51.4815 L115.283,50.7815 C115.633,49.756 115.9655,48.748 116.3085,47.768 C116.6515,46.788 117.0085,45.78 117.334,44.751 C117.677,43.638 118.041,42.5588333 118.426,41.5135 C118.811,40.4635 119.238,39.452 119.707,38.4685 C120.176,37.485 120.568,36.5925 121.0195,35.7 L121.023,35.7035 Z M120.2845,36.47 C120.25033,36.5303429 120.228888,36.5970486 120.2215,36.666 C120.218265,36.714754 120.195562,36.7601595 120.1585,36.792 C120.152875,36.6702348 120.197109,36.5514345 120.281,36.463 L120.2845,36.47 Z M120.092,36.792 C120.106139,36.8958055 120.05458,36.9975316 119.9625,37.0475 C119.968144,36.9467829 120.013447,36.8524005 120.0885,36.785 L120.092,36.792 Z M114.5795,51.863 C114.6635,51.6915 114.737,51.513 114.8035,51.352 C114.864881,51.1885705 114.896874,51.0155727 114.898,50.841 C115.241,49.728 115.582833,48.6581667 115.9235,47.6315 C116.264167,46.6048333 116.627,45.535 117.012,44.422 C117.473166,42.9347463 118.03085,41.4791565 118.6815,40.0645 L118.9405,39.6165 C118.928347,39.5253247 118.950827,39.432907 119.0035,39.3575 C119.080368,38.9954676 119.197775,38.6432467 119.3535,38.3075 C119.5075,37.9855 119.644,37.653 119.7735,37.31 L119.903,37.184 C119.917695,37.18935 119.933805,37.18935 119.9485,37.184 L119.903,37.3275 L119.063,39.55 C119.021,39.55 119,39.5605 119,39.5815 C119,39.6025 118.979,39.6165 118.937,39.6165 C118.890125,39.7159698 118.867343,39.8250838 118.8705,39.935 C118.874756,40.0547812 118.827635,40.1706746 118.741,40.2535 C118.099333,41.8355 117.479833,43.5038333 116.8825,45.2585 C116.5395,46.2431667 116.218667,47.2266667 115.92,48.209 C115.6225,49.1925 115.3425,50.176 115.087,51.1595 C114.9995,51.331 114.9365,51.471 114.8945,51.576 C114.8525,51.681 114.807,51.8 114.765,51.926 L114.702,51.9925 L114.6355,52.0555 C114.6355,52.01 114.6355,51.9925 114.604,51.9925 C114.5725,51.9925 114.576,51.968 114.576,51.926 L114.5795,51.863 Z M118.0795,69.9755 C118.024474,70.2950112 117.875868,70.5910064 117.6525,70.826 C117.454135,71.2686506 117.144178,71.6521766 116.753,71.939 C116.934769,71.471274 117.246962,71.0655448 117.6525,70.77 C117.687839,70.631428 117.74201,70.4983554 117.8135,70.3745 C117.882935,70.2484196 117.936988,70.1144618 117.9745,69.9755 C118.039257,69.9413614 118.111296,69.9233517 118.1845,69.923 L118.0795,69.9755 Z M118.6605,67.7985 C118.629676,67.8852175 118.611981,67.9760534 118.608,68.068 C118.607245,68.1411529 118.589258,68.2130979 118.5555,68.278 C118.307,68.74 118.069,69.188 117.8555,69.6325 C117.629812,70.0654512 117.373668,70.4818315 117.089,70.8785 C116.968612,70.9601175 116.868131,71.0677761 116.795,71.1935 C116.743362,71.2905341 116.659052,71.3661649 116.557,71.407 C116.541057,71.4189978 116.523345,71.428444 116.5045,71.435 C116.5045,71.4175 116.522,71.407 116.557,71.407 L116.557,71.302 C116.55444,71.2030978 116.593858,71.1077323 116.6655,71.0395 L116.928,70.77 C116.936451,70.6464469 116.994522,70.5315667 117.089,70.4515 C117.197547,70.3380256 117.254522,70.1848267 117.2465,70.028 L117.138,70.028 C117.2115,69.853 117.264,69.762 117.299,69.762 C117.29644,69.6630978 117.335858,69.5677323 117.4075,69.4995 L117.6175,69.286 C117.6175,69.1075 117.656,69.0025 117.7225,68.971 L117.936,68.7015 C117.936,68.6665 117.936,68.6525 117.9115,68.6525 C117.887,68.6525 117.8835,68.6315 117.8835,68.5965 C117.8835,68.5615 117.936,68.509 118.041,68.439 L118.202,68.2255 L118.202,68.383 L118.1495,68.439 C118.262614,68.3559011 118.353888,68.2466115 118.4155,68.1205 L118.678,67.7985 C118.668745,67.6733456 118.687889,67.5477177 118.734,67.431 C118.731393,67.4599978 118.740181,67.4888711 118.7585,67.5115 C118.77736,67.5324487 118.786287,67.5605043 118.783,67.5885 C118.772318,67.6730468 118.723247,67.7479446 118.65,67.7915 L118.6605,67.7985 Z M119.245,55.2825 C119.420129,55.6343156 119.545014,56.0089699 119.616,56.3955 C119.686,56.8925 119.7665,57.3685 119.854,57.8305 C119.944628,58.3019321 119.971702,58.7833794 119.9345,59.262 C119.8995,59.5455 119.875,59.836 119.854,60.137 C119.833,60.438 119.812,60.746 119.777,61.0645 C119.777003,61.1979909 119.767647,61.3313178 119.749,61.4635 C119.7315,61.586 119.707,61.7365 119.6685,61.915 C119.6335,62.2335 119.5705,62.615 119.483,63.028 C119.3955,63.441 119.315,63.875 119.245,64.302 C119.131122,64.8166884 118.953589,65.3151912 118.7165,65.786 C118.205329,67.0846438 117.565121,68.3287105 116.8055,69.4995 C116.627,69.7795 116.4555,70.056 116.249,70.322 C116.0425,70.588 115.85,70.8435 115.6365,71.0885 C114.977966,71.9179709 114.03037,72.4680262 112.9835,72.6285 C112.9135,72.6285 112.8715,72.6285 112.854,72.653 C112.831905,72.6725775 112.802975,72.6826403 112.7735,72.6811732 C112.654854,72.676139 112.541869,72.6289586 112.455,72.548 C112.34398,72.4462661 112.285902,72.2991355 112.2975,72.149 C112.117822,71.5653953 112.0818,70.9470199 112.1925,70.3465 C112.192305,69.6539974 112.244958,68.9624896 112.35,68.278 C112.349683,68.1283234 112.357863,67.9787494 112.3745,67.83 C112.392,67.704 112.42,67.5535 112.455,67.375 C112.384696,67.2241211 112.384696,67.0498789 112.455,66.899 L112.455,66.423 C112.529667,66.066 112.599667,65.73 112.665,65.415 L112.8785,64.4595 C112.948576,64.2243133 113.00237,63.9845794 113.0395,63.742 C113.0745,63.5086667 113.1095,63.2753333 113.1445,63.042 L113.463,61.8765 C113.572997,61.4762363 113.714609,61.0853407 113.8865,60.7075 C114.17,59.752 114.4605,58.8175 114.765,57.9075 C115.0695,56.9975 115.374,56.0525 115.6925,55.1075 C115.760391,54.7617129 115.867239,54.4247306 116.011,54.103 C116.141127,53.8109949 116.247635,53.5090276 116.3295,53.2 C116.341649,52.9889879 116.41458,52.7859955 116.5395,52.6155 C116.564293,52.5190003 116.653482,52.4532054 116.753,52.458 C116.788,52.458 116.8405,52.493 116.9105,52.5665 C116.999815,52.7562314 117.137407,52.9191695 117.3095,53.039 C117.467459,53.1464664 117.636411,53.2368089 117.8135,53.3085 C118.25115,53.4971902 118.608129,53.8343376 118.8215,54.2605 C118.931774,54.6098602 119.071094,54.9493785 119.238,55.2755 L119.245,55.2825 Z M133.4305,43.1445 C133.535881,43.029486 133.622142,42.8983218 133.686,42.756 L133.882,42.8225 C133.882,42.8645 133.8365,42.9065 133.749,42.9485 C133.399,43.4175 133.091,43.869 132.7865,44.296 C132.482,44.723 132.1915,45.1955 131.8905,45.696 L131.8275,45.7625 C131.782,45.7625 131.782,45.738 131.8275,45.696 L131.8275,45.633 C132.198205,44.708393 132.73963,43.8618223 133.4235,43.1375 L133.4305,43.1445 Z M132.083,43.3335 C132.070727,43.4386296 132.011539,43.5325585 131.922,43.589 C131.8135,43.6765 131.7225,43.764 131.635,43.848 C131.628,43.6695 131.775,43.498 132.076,43.3265 L132.083,43.3335 Z M127.715,52.7555 L127.652,53.333 L127.5225,53.5885 L127.5855,52.7555 C127.589743,52.6565462 127.612291,52.5592361 127.652,52.4685 C127.694,52.36 127.736,52.2655 127.778,52.178 C127.867844,51.9522342 127.933543,51.7175942 127.974,51.478 C128.011988,51.2386224 128.075345,51.0039676 128.163,50.778 C128.240376,50.5929106 128.294457,50.3989249 128.324,50.2005 C128.358013,49.9946045 128.43428,49.7979791 128.548,49.623 C128.898,48.769 129.248,47.9115 129.64,47.0575 C130.065902,46.1391811 130.604369,45.2773997 131.243,44.492 C131.289394,44.3048918 131.37665,44.1303802 131.4985,43.981 L131.565,43.9145 C131.567046,43.9800999 131.556349,44.0454738 131.5335,44.107 C131.506178,44.1673112 131.494156,44.2334313 131.4985,44.2995 C131.152567,44.6886563 130.842162,45.1079962 130.571,45.5525 C130.319082,45.9438457 130.113535,46.3631627 129.9585,46.802 C129.457806,47.6310987 129.049373,48.5125149 128.7405,49.4305 C128.6145,49.7805 128.4955,50.106 128.3905,50.4245 C128.2855,50.743 128.1665,51.058 128.0405,51.3555 L127.981,51.8665 C127.937293,51.9929621 127.904507,52.1229378 127.883,52.255 C127.841411,52.4263294 127.785206,52.5937763 127.715,52.7555 L127.715,52.7555 Z M129.1605,49.8365 C128.9645,50.33 128.7825,50.834 128.6145,51.345 C128.531046,51.5848054 128.465532,51.8304822 128.4185,52.08 C128.364462,52.3572375 128.278733,52.6273439 128.163,52.885 C128.084567,53.2557641 127.976897,53.619735 127.841,53.9735 L127.841,54.04 L127.778,53.9735 L127.778,53.718 C127.857142,53.4887552 127.922591,53.2550099 127.974,53.018 C128.016,52.8033333 128.079,52.5478333 128.163,52.2515 C128.252683,51.9780905 128.327459,51.7000149 128.387,51.4185 C128.459988,51.0913362 128.555891,50.7697096 128.674,50.456 C128.923509,49.9658892 129.117222,49.4493225 129.2515,48.916 C129.596833,48.0573333 129.992333,47.2021667 130.438,46.3505 C130.898063,45.4771864 131.424616,44.6405522 132.013,43.848 C132.260828,43.3882673 132.586483,42.9749809 132.9755,42.6265 L133.1015,42.5005 L133.168,42.567 C133.168,42.609 133.1015,42.693 132.9755,42.8225 C132.654776,43.215507 132.365704,43.6333151 132.111,44.072 C131.877667,44.478 131.588333,44.9166667 131.243,45.388 C130.984,45.857 130.718,46.3505 130.438,46.8615 C130.179084,47.3366919 129.955642,47.8303699 129.7695,48.3385 C129.556,48.8425 129.3495,49.35 129.15,49.8365 L129.1605,49.8365 Z M135.4605,48.265 L135.6565,48.139 L135.716,48.139 L135.527,48.3315 L135.4605,48.265 Z M134.694,54.166 C134.731254,54.1356162 134.744073,54.0843405 134.7255,54.04 C134.701,53.998 134.7255,53.9525 134.82,53.9105 C134.823235,53.861746 134.845938,53.8163405 134.883,53.7845 C134.883,53.697 134.9495,53.613 135.079,53.5255 L135.079,53.333 C135.079,53.291 135.121,53.2245 135.205,53.1405 L135.268,52.948 C135.263752,52.8775522 135.287674,52.8083038 135.3345,52.7555 C135.331393,52.6898348 135.342125,52.6242499 135.366,52.563 L135.4605,52.3705 L135.527,52.3705 L135.4605,52.4335 C135.434946,52.5465634 135.392468,52.6551203 135.3345,52.7555 L135.3345,53.011 L135.205,53.1405 L135.205,53.3995 L135.079,53.5255 L134.981,53.718 C134.937362,53.7899288 134.88308,53.8548318 134.82,53.9105 C134.833783,54.0133516 134.783988,54.1143231 134.694,54.166 C134.659999,54.4254599 134.519161,54.6589218 134.3055,54.81 C134.354617,54.5526332 134.498182,54.3229289 134.708,54.166 L134.694,54.166 Z M134.2425,54.866 C134.247708,54.935964 134.225064,55.0051523 134.1795,55.0585 C134.1935,54.95 134.2145,54.873 134.2565,54.873 L134.2425,54.866 Z M135.7825,54.096 C135.567833,54.481 135.364833,54.866 135.1735,55.251 C134.992518,55.6271186 134.792766,55.9939136 134.575,56.35 C134.514059,56.4054583 134.46106,56.4690577 134.4175,56.539 C134.374199,56.6122007 134.319897,56.6783067 134.2565,56.735 L134.1935,56.735 C134.405833,56.35 134.608833,56 134.8025,55.685 C134.982804,55.3856446 135.142991,55.0746243 135.282,54.754 L135.73,53.9 L135.8,53.9 L135.7825,54.096 Z M136.1045,51.849 C136.109486,51.9601958 136.086628,52.0708767 136.038,52.171 L135.1385,54.1275 C134.832688,54.8029296 134.446027,55.4387454 133.987,56.021 C133.88468,56.2457632 133.731271,56.4435172 133.539,56.5985 L133.861,56.021 C134.193518,55.5622116 134.492942,55.0803262 134.757,54.579 C135.0125,54.0855 135.247,53.606 135.457,53.1335 L135.7125,52.493 L135.9715,51.849 L136.164,51.786 L136.1045,51.849 Z M150.4265,47.103 C150.27819,47.2958435 150.116811,47.4782728 149.9435,47.649 C149.752255,47.8436999 149.548846,48.0260664 149.3345,48.195 C149.2505,48.2825 149.2085,48.3455 149.2085,48.3875 C149.129906,48.5849872 149.021294,48.7691564 148.8865,48.9335 C148.757,49.0805 148.631,49.2205 148.5015,49.35 C148.434136,49.5776084 148.31425,49.7862109 148.1515,49.959 C148.000782,50.1093564 147.861558,50.2708096 147.735,50.442 C147.559093,50.744565 147.320403,51.0059305 147.035,51.2085 C146.818099,51.937996 146.492438,52.6306155 146.069,53.263 L145.88,53.263 L145.88,53.0705 C146.081921,52.7499097 146.263125,52.4167292 146.4225,52.073 C146.603451,51.7183893 146.833183,51.3908738 147.105,51.1 C147.127866,50.755158 147.318959,50.4436503 147.616,50.267 C147.697243,50.06354 147.815966,49.8771439 147.966,49.7175 L148.3825,49.3045 C148.466165,49.0938387 148.584463,48.898648 148.7325,48.727 C148.866446,48.5679787 149.030617,48.4371182 149.2155,48.342 C149.214554,48.2582124 149.264334,48.1821597 149.3415,48.1495 C149.521116,47.8554707 149.724815,47.5768485 149.9505,47.3165 C150.141833,47.1041667 150.344833,46.8906667 150.5595,46.676 C150.575638,46.8304689 150.533167,46.9853646 150.4405,47.11 L150.4265,47.103 Z M150.745,46.4625 L150.8745,46.3995 C150.846403,46.4367833 150.805053,46.4618438 150.759,46.4695 L150.745,46.4625 Z M150.8745,45.5035 C150.624028,45.8367572 150.356505,46.1568506 150.073,46.4625 C149.7965,46.7635 149.506,47.061 149.2085,47.3585 L148.9495,47.8765 C148.568,48.3455 148.19,48.8145 147.826,49.2765 C147.462,49.7385 147.126,50.2145 146.776,50.6765 L146.6465,50.7395 L146.5205,50.806 C146.44141,50.7731794 146.390169,50.6956254 146.39099,50.61 C146.563667,50.3953333 146.714167,50.2028333 146.8425,50.0325 L147.224,49.5215 L148.1235,48.3665 C148.431264,47.9719065 148.775811,47.6074366 149.1525,47.278 C149.145084,47.2067227 149.167942,47.1356072 149.2155,47.082 C149.513,46.732 149.8105,46.382 150.1115,46.032 C150.385137,45.6952601 150.709921,45.4035453 151.074,45.1675 L150.8745,45.5035 Z M151.1965,46.144 C151.1965,46.0985 151.2385,46.0355 151.3225,45.948 C151.3365,46.0005 151.2945,46.0635 151.2,46.151 L151.1965,46.144 Z M151.3225,44.7965 C151.317849,44.7609308 151.329989,44.7252196 151.355354,44.6998543 C151.38072,44.674489 151.416431,44.6623491 151.452,44.667 C151.458487,44.7007553 151.449114,44.7356199 151.426576,44.7615726 C151.404038,44.7875254 151.370831,44.8016918 151.3365,44.8 L151.3225,44.7965 Z M151.5185,45.6925 C151.482656,45.6949689 151.44844,45.7084108 151.4205,45.731 L151.5185,45.6295 L151.5185,45.6925 Z M151.837,45.3075 C151.837,45.2655 151.879,45.2025 151.963,45.115 C151.977,45.15 151.935,45.2305 151.851,45.3145 L151.837,45.3075 Z" id="Shape"></path>
                <polygon id="Path" points="172.4485 32.2315 172.4485 47.7225 172.4135 47.7225 160.4295 32.2315 155.75 32.2315 155.75 57.274 161.294 57.274 161.294 41.874 161.329 41.874 173.278 57.274 177.9995 57.274 177.9995 32.2315"></polygon>
                <polygon id="Path" points="186.529 52.087 198.1875 37.4185 198.1875 32.2315 180.6 32.2315 180.6 37.4185 191.45 37.4185 179.6795 52.087 179.6795 57.274 198.5795 57.274 198.5795 52.087"></polygon>
            </g>
        </g>
    </g>
</svg>